<svg width="631" height="706" viewBox="0 0 631 706" fill="none" xmlns="http://www.w3.org/2000/svg">
<path d="M349.525 5.70158C350.092 0.331242 357.908 0.331242 358.475 5.70158L381.48 223.705C382.201 230.534 390.957 232.884 395.001 227.335L524.189 50.0205C527.37 45.6553 534.136 49.5715 531.936 54.5038L442.618 254.705C439.818 260.981 446.23 267.404 452.51 264.616L653.188 175.527C658.126 173.335 662.029 180.112 657.656 183.283L480.026 312.063C474.458 316.1 476.805 324.876 483.645 325.594L702.016 348.525C707.389 349.089 707.389 356.911 702.016 357.475L483.645 380.406C476.805 381.124 474.458 389.9 480.026 393.937L657.656 522.717C662.029 525.888 658.126 532.665 653.188 530.473L452.51 441.384C446.23 438.596 439.818 445.019 442.618 451.295L531.936 651.496C534.136 656.428 527.369 660.345 524.189 655.979L395 478.665C390.957 473.115 382.201 475.466 381.48 482.295L358.475 700.298C357.908 705.669 350.092 705.669 349.525 700.298L326.52 482.295C325.799 475.466 317.043 473.116 312.999 478.665L183.811 655.98C180.631 660.345 173.864 656.429 176.064 651.496L265.382 451.295C268.182 445.019 261.77 438.596 255.49 441.384L54.8116 530.473C49.8741 532.665 45.9706 525.888 50.3444 522.717L227.974 393.937C233.542 389.9 231.195 381.124 224.355 380.406L5.98421 357.475C0.61076 356.911 0.610813 349.089 5.98419 348.525L224.355 325.594C231.195 324.876 233.542 316.1 227.974 312.063L50.3444 183.283C45.9707 180.112 49.874 173.335 54.8116 175.527L255.49 264.616C261.77 267.404 268.182 260.981 265.382 254.705L176.064 54.5038C173.864 49.5716 180.631 45.6553 183.811 50.0205L313 227.335C317.043 232.885 325.799 230.534 326.52 223.705L349.525 5.70158Z" stroke="#F6F6F6" stroke-width="3"/>
</svg>
