<?xml version="1.0" standalone="no"?>
<!DOCTYPE svg PUBLIC "-//W3C//DTD SVG 20010904//EN"
 "http://www.w3.org/TR/2001/REC-SVG-20010904/DTD/svg10.dtd">
<svg version="1.0" xmlns="http://www.w3.org/2000/svg"
 width="700.000000pt" height="700.000000pt" viewBox="0 0 700.000000 700.000000"
 preserveAspectRatio="xMidYMid meet">
<metadata>
Created by potrace 1.14, written by Peter Selinger 2001-2017
</metadata>
<g transform="translate(0.000000,700.000000) scale(0.100000,-0.100000)"
fill="#000000" stroke="none">
<path d="M3091 6910 c-4 -3 -7 -110 -6 -238 0 -129 -2 -235 -5 -237 -3 -2 -21
-6 -40 -9 -19 -3 -46 -8 -60 -10 -14 -3 -41 -7 -60 -10 -122 -19 -346 -78
-465 -122 -55 -20 -117 -42 -137 -50 -48 -18 -189 -81 -208 -94 -8 -6 -26 -15
-40 -21 -118 -50 -448 -273 -590 -399 -250 -223 -469 -491 -627 -770 -137
-242 -258 -551 -308 -785 -12 -55 -35 -173 -39 -200 -2 -16 -7 -49 -11 -72
l-7 -43 -244 0 -244 0 0 -350 0 -350 244 0 244 0 7 -42 c4 -24 9 -56 11 -73
11 -72 37 -197 60 -285 233 -878 866 -1607 1704 -1962 238 -101 491 -174 709
-204 85 -11 94 -13 100 -23 4 -5 6 -113 6 -240 0 -148 3 -232 10 -234 5 -1
163 -3 350 -2 l340 0 0 237 c0 130 3 239 6 242 5 5 25 9 109 21 66 9 279 55
325 70 22 7 54 16 70 20 28 6 223 75 270 95 466 200 864 492 1155 850 25 30
49 60 55 66 23 24 144 200 197 286 49 80 178 328 178 343 0 2 11 28 24 57 80
174 169 499 201 731 l6 47 245 0 244 0 0 350 0 350 -245 0 c-139 0 -245 4
-245 9 0 28 -44 261 -66 351 -76 310 -213 622 -391 895 -353 539 -872 951
-1473 1168 -167 60 -413 124 -545 142 -92 12 -114 17 -117 28 -2 7 -4 114 -3
240 1 125 -1 228 -5 228 -19 4 -683 3 -689 -1z m-6 -1662 l0 -143 347 -1 c311
-1 348 1 352 15 2 9 3 73 2 144 -2 149 -13 140 134 103 325 -83 632 -256 880
-497 104 -100 260 -300 316 -404 6 -11 20 -36 31 -55 72 -127 173 -403 189
-519 l6 -41 -146 0 -146 0 -1 -37 c-1 -53 -1 -635 0 -650 1 -10 38 -13 150
-13 l148 0 -14 -62 c-161 -709 -706 -1270 -1410 -1453 -150 -39 -138 -49 -138
117 l0 143 -350 1 -351 2 1 -144 c1 -163 6 -154 -83 -133 -83 20 -247 71 -256
80 -6 5 -16 9 -24 9 -27 0 -257 118 -352 180 -351 232 -619 568 -760 955 -18
50 -37 104 -41 120 -30 118 -38 152 -39 167 0 16 15 18 146 20 l147 3 -1 335
c0 184 -1 341 -1 348 -1 9 -37 12 -146 12 -169 0 -158 -12 -120 130 187 699
727 1224 1440 1398 22 6 51 10 65 11 l26 1 -1 -142z"/>
</g>
</svg>
