<svg width="101" height="34" viewBox="0 0 101 34" fill="none" xmlns="http://www.w3.org/2000/svg">
<path d="M7.37809 13.3388C6.45831 13.3388 5.60423 13.181 4.81585 12.8653C4.02747 12.5497 3.33764 12.1088 2.74636 11.5429C2.16599 10.966 1.71161 10.2966 1.38312 9.53471C1.05463 8.77283 0.890381 7.94557 0.890381 7.05308C0.890381 6.16059 1.04912 5.33332 1.36669 4.57145C1.69518 3.80954 2.14957 3.14559 2.72993 2.57961C3.32122 2.01363 4.01105 1.57281 4.79943 1.25716C5.58781 0.941512 6.44739 0.783691 7.37809 0.783691C8.30879 0.783691 9.16837 0.941512 9.95675 1.25716C10.7451 1.57281 11.4295 2.01363 12.0098 2.57961C12.6011 3.14559 13.0555 3.80954 13.3731 4.57145C13.7016 5.33332 13.8658 6.16059 13.8658 7.05308C13.8658 7.94557 13.7016 8.77283 13.3731 9.53471C13.0446 10.2966 12.5847 10.966 11.9934 11.5429C11.413 12.1088 10.7287 12.5497 9.94033 12.8653C9.15195 13.181 8.29786 13.3388 7.37809 13.3388ZM7.37809 11.0531C7.93652 11.0531 8.45119 10.9551 8.922 10.7592C9.40382 10.5633 9.82535 10.2912 10.1867 9.94287C10.548 9.58369 10.8273 9.1592 11.0243 8.66941C11.2214 8.17961 11.32 7.64083 11.32 7.05308C11.32 6.46532 11.2214 5.93202 11.0243 5.45308C10.8273 4.96328 10.548 4.53879 10.1867 4.17961C9.82535 3.82043 9.40382 3.54832 8.922 3.36328C8.45119 3.16737 7.93652 3.06941 7.37809 3.06941C6.81965 3.06941 6.29957 3.16737 5.81776 3.36328C5.34694 3.54832 4.93083 3.82043 4.56949 4.17961C4.20815 4.53879 3.92893 4.96328 3.73183 5.45308C3.53474 5.93202 3.43619 6.46532 3.43619 7.05308C3.43619 7.64083 3.53474 8.17961 3.73183 8.66941C3.92893 9.1592 4.20815 9.58369 4.56949 9.94287C4.93083 10.2912 5.34694 10.5633 5.81776 10.7592C6.29957 10.9551 6.81965 11.0531 7.37809 11.0531ZM18.7099 13.3388C17.9872 13.3388 17.3686 13.1864 16.8539 12.8817C16.3503 12.566 15.967 12.1306 15.7042 11.5755C15.4414 11.0204 15.31 10.3728 15.31 9.63267V4.22859H17.7737V9.43675C17.7737 9.77414 17.8394 10.0735 17.9708 10.3347C18.1131 10.5851 18.3102 10.781 18.5621 10.9225C18.8139 11.0639 19.0986 11.1347 19.4162 11.1347C19.7446 11.1347 20.0294 11.0639 20.2702 10.9225C20.5221 10.781 20.7137 10.5851 20.8451 10.3347C20.9874 10.0735 21.0586 9.77414 21.0586 9.43675V4.22859H23.5223V13.1429H21.2229V11.3796L21.3543 11.7714C21.1462 12.3048 20.8067 12.7021 20.3359 12.9633C19.876 13.2137 19.334 13.3388 18.7099 13.3388ZM29.6427 13.2408C28.5587 13.2408 27.7155 12.9524 27.1133 12.3755C26.522 11.7878 26.2264 10.9714 26.2264 9.92655V6.35104H24.7153V4.22859H24.7974C25.2573 4.22859 25.6077 4.1143 25.8486 3.88573C26.1004 3.65716 26.2264 3.3143 26.2264 2.85716V2.2041H28.6901V4.22859H30.7924V6.35104H28.6901V9.76328C28.6901 10.068 28.7447 10.3239 28.8543 10.5306C28.9638 10.7265 29.1335 10.8735 29.3635 10.9714C29.5934 11.0694 29.878 11.1184 30.2175 11.1184C30.2942 11.1184 30.3818 11.1129 30.4803 11.1021C30.5789 11.0912 30.6828 11.0803 30.7924 11.0694V13.1429C30.6281 13.1647 30.442 13.1864 30.234 13.2082C30.0259 13.23 29.8288 13.2408 29.6427 13.2408ZM35.7509 13.3388C34.7654 13.3388 33.9059 13.1102 33.1722 12.6531C32.4496 12.1851 31.9568 11.5592 31.694 10.7755L33.5007 9.92655C33.7307 10.4055 34.0427 10.781 34.4369 11.0531C34.8311 11.3252 35.2692 11.4612 35.7509 11.4612C36.1013 11.4612 36.3696 11.3905 36.5557 11.249C36.7419 11.1075 36.8349 10.9116 36.8349 10.6612C36.8349 10.5306 36.8021 10.4218 36.7364 10.3347C36.6707 10.2368 36.5721 10.1497 36.4407 10.0735C36.3093 9.99732 36.1451 9.93202 35.948 9.87757L34.4205 9.45308C33.6869 9.2463 33.123 8.9143 32.7288 8.45716C32.3346 7.98916 32.1375 7.43945 32.1375 6.80818C32.1375 6.25308 32.2799 5.76875 32.5645 5.35512C32.8492 4.94149 33.2489 4.62043 33.7635 4.39185C34.2782 4.1524 34.8695 4.03267 35.5374 4.03267C36.4134 4.03267 37.1797 4.23945 37.8367 4.65308C38.5051 5.05577 38.9757 5.6272 39.2492 6.36736L37.426 7.21634C37.2946 6.8463 37.0539 6.55243 36.7035 6.33471C36.3641 6.10614 35.9754 5.99185 35.5374 5.99185C35.2199 5.99185 34.968 6.05716 34.7818 6.18777C34.6067 6.31839 34.5191 6.49798 34.5191 6.72655C34.5191 6.8463 34.5519 6.95512 34.6176 7.05308C34.6833 7.15104 34.7873 7.23814 34.9297 7.3143C35.083 7.39047 35.2692 7.46124 35.4881 7.52655L36.917 7.95104C37.6617 8.16875 38.2308 8.50067 38.625 8.94696C39.0192 9.3823 39.2163 9.92108 39.2163 10.5633C39.2163 11.1184 39.0685 11.6027 38.7729 12.0163C38.4887 12.43 38.0888 12.7565 37.5739 12.9959C37.0594 13.2245 36.4517 13.3388 35.7509 13.3388ZM45.1398 13.3388C44.2529 13.3388 43.4432 13.1374 42.709 12.7347C41.9863 12.332 41.4065 11.7823 40.968 11.0857C40.541 10.3782 40.3274 9.57822 40.3274 8.68573C40.3274 7.7823 40.541 6.9823 40.968 6.28573C41.4065 5.58916 41.9863 5.03945 42.709 4.63675C43.4432 4.23406 44.2529 4.03267 45.1398 4.03267C46.0268 4.03267 46.8316 4.23406 47.5543 4.63675C48.2769 5.03945 48.8518 5.58916 49.2788 6.28573C49.7174 6.9823 49.9358 7.7823 49.9358 8.68573C49.9358 9.57822 49.7174 10.3782 49.2788 11.0857C48.8518 11.7823 48.2769 12.332 47.5543 12.7347C46.8316 13.1374 46.0268 13.3388 45.1398 13.3388ZM45.1398 11.1347C45.5891 11.1347 45.9775 11.0313 46.306 10.8245C46.646 10.6177 46.9088 10.3292 47.0944 9.9592C47.2915 9.58916 47.39 9.16467 47.39 8.68573C47.39 8.20679 47.2915 7.78777 47.0944 7.42859C46.9088 7.05855 46.646 6.77006 46.306 6.56328C45.9775 6.34557 45.5891 6.23675 45.1398 6.23675C44.6915 6.23675 44.2973 6.34557 43.9573 6.56328C43.6181 6.77006 43.3496 7.05855 43.1525 7.42859C42.9669 7.78777 42.8732 8.20679 42.8732 8.68573C42.8732 9.16467 42.9669 9.58916 43.1525 9.9592C43.3496 10.3292 43.6181 10.6177 43.9573 10.8245C44.2973 11.0313 44.6915 11.1347 45.1398 11.1347ZM54.607 13.3388C53.8843 13.3388 53.2651 13.1864 52.751 12.8817C52.2468 12.566 51.8641 12.1306 51.6013 11.5755C51.3385 11.0204 51.2071 10.3728 51.2071 9.63267V4.22859H53.6708V9.43675C53.6708 9.77414 53.7365 10.0735 53.8679 10.3347C54.0099 10.5851 54.207 10.781 54.4591 10.9225C54.7104 11.0639 54.9954 11.1347 55.3132 11.1347C55.6417 11.1347 55.9259 11.0639 56.1673 10.9225C56.4186 10.781 56.6108 10.5851 56.7422 10.3347C56.8842 10.0735 56.9557 9.77414 56.9557 9.43675V4.22859H59.4194V13.1429H57.1199V11.3796L57.2513 11.7714C57.0427 12.3048 56.7036 12.7021 56.233 12.9633C55.7731 13.2137 55.2311 13.3388 54.607 13.3388ZM61.2195 13.1429V4.22859H63.5189V6.36736L63.3547 6.05716C63.5518 5.30614 63.8754 4.80002 64.3237 4.53879C64.7836 4.26671 65.3257 4.13063 65.9498 4.13063H66.4754V6.25308H65.7034C65.1015 6.25308 64.6145 6.43814 64.2416 6.80818C63.8696 7.16737 63.6832 7.67896 63.6832 8.34288V13.1429H61.2195ZM71.9571 13.3388C71.0595 13.3388 70.2489 13.1374 69.5262 12.7347C68.8142 12.3211 68.2451 11.7606 67.8181 11.0531C67.4017 10.3456 67.1939 9.55104 67.1939 8.66941C67.1939 7.78777 67.4017 6.99863 67.8181 6.30206C68.2344 5.59455 68.8036 5.03945 69.5262 4.63675C70.2489 4.23406 71.0595 4.03267 71.9571 4.03267C72.6247 4.03267 73.2439 4.14696 73.8131 4.37553C74.3822 4.6041 74.87 4.92516 75.2748 5.33879C75.6797 5.74149 75.9704 6.22043 76.1453 6.77553L74.0102 7.68981C73.8566 7.24353 73.5938 6.88981 73.2218 6.62859C72.8604 6.36737 72.4391 6.23675 71.9571 6.23675C71.53 6.23675 71.1465 6.34018 70.8074 6.54696C70.4789 6.75373 70.2161 7.04222 70.019 7.41226C69.8326 7.7823 69.7398 8.20679 69.7398 8.68573C69.7398 9.16467 69.8326 9.58916 70.019 9.9592C70.2161 10.3292 70.4789 10.6177 70.8074 10.8245C71.1465 11.0313 71.53 11.1347 71.9571 11.1347C72.4498 11.1347 72.8769 11.0041 73.2382 10.7429C73.5995 10.4816 73.8566 10.1279 74.0102 9.68165L76.1453 10.6123C75.9811 11.1347 75.6961 11.6027 75.2913 12.0163C74.8864 12.43 74.3986 12.7565 73.8295 12.9959C73.2604 13.2245 72.6362 13.3388 71.9571 13.3388ZM77.5965 13.1429V4.22859H80.0601V13.1429H77.5965ZM77.5965 3.42859V0.97961H80.0601V3.42859H77.5965ZM81.8627 13.1429V4.22859H84.1622V5.99185L84.0308 5.60002C84.2386 5.06671 84.5728 4.67488 85.0327 4.42451C85.5033 4.16328 86.051 4.03267 86.6751 4.03267C87.3543 4.03267 87.9456 4.17414 88.449 4.45716C88.9639 4.74018 89.363 5.13741 89.648 5.649C89.933 6.14965 90.075 6.7374 90.075 7.41226V13.1429H87.6113V7.93471C87.6113 7.58639 87.5399 7.28712 87.3978 7.03675C87.2664 6.78639 87.0751 6.59047 86.823 6.449C86.5823 6.30753 86.2974 6.23675 85.9689 6.23675C85.6511 6.23675 85.3669 6.30753 85.1148 6.449C84.8627 6.59047 84.6656 6.78639 84.5235 7.03675C84.3921 7.28712 84.3264 7.58639 84.3264 7.93471V13.1429H81.8627ZM96.0971 16.7347C95.4073 16.7347 94.7667 16.6204 94.1754 16.3919C93.5841 16.1633 93.075 15.8422 92.6479 15.4286C92.2316 15.0259 91.9302 14.547 91.7446 13.9919L94.0276 13.1919C94.1475 13.6055 94.3939 13.932 94.7667 14.1714C95.1387 14.4109 95.5822 14.5306 96.0971 14.5306C96.502 14.5306 96.8526 14.4545 97.1483 14.3021C97.4439 14.1606 97.6681 13.9483 97.8217 13.6653C97.9859 13.3823 98.0681 13.0504 98.0681 12.6694V10.6286L98.5444 11.2163C98.2372 11.717 97.843 12.0925 97.3618 12.3429C96.8797 12.5823 96.3156 12.7021 95.6701 12.7021C94.8373 12.7021 94.0933 12.517 93.4363 12.147C92.7793 11.766 92.2644 11.249 91.8924 10.5959C91.5196 9.93202 91.334 9.181 91.334 8.34288C91.334 7.50475 91.5196 6.76467 91.8924 6.12247C92.2644 5.46941 92.7736 4.95781 93.4199 4.58777C94.0654 4.21773 94.7996 4.03267 95.6208 4.03267C96.2663 4.03267 96.8305 4.16328 97.3125 4.42451C97.7938 4.67488 98.2044 5.06124 98.5444 5.58369L98.2323 6.17145V4.22859H100.532V12.6694C100.532 13.4531 100.34 14.1496 99.9569 14.7592C99.5734 15.3796 99.0478 15.8639 98.3801 16.2123C97.7231 16.5606 96.9619 16.7347 96.0971 16.7347ZM96.015 10.4817C96.4305 10.4817 96.7919 10.3945 97.099 10.2204C97.4053 10.0463 97.641 9.80141 97.8053 9.48573C97.9802 9.17006 98.0681 8.80002 98.0681 8.37553C98.0681 7.95104 97.9802 7.581 97.8053 7.26532C97.6295 6.93879 97.3889 6.68843 97.0826 6.5143C96.7754 6.32924 96.4199 6.23675 96.015 6.23675C95.5986 6.23675 95.2266 6.32924 94.8981 6.5143C94.5803 6.68843 94.3282 6.93879 94.1426 7.26532C93.9668 7.581 93.8798 7.95104 93.8798 8.37553C93.8798 8.78916 93.9668 9.15373 94.1426 9.46941C94.3282 9.78508 94.5803 10.0354 94.8981 10.2204C95.2266 10.3945 95.5986 10.4817 96.015 10.4817ZM6.1134 33.747C5.14985 33.747 4.29027 33.5456 3.53474 33.1429C2.77921 32.7402 2.18242 32.1905 1.74446 31.4939C1.31742 30.7864 1.1039 29.9864 1.1039 29.0939V21.3878H3.64971V28.9306C3.64971 29.4096 3.75376 29.8449 3.96178 30.2368C4.1808 30.6177 4.47644 30.917 4.8487 31.1347C5.22097 31.3524 5.64259 31.4612 6.1134 31.4612C6.59521 31.4612 7.01675 31.3524 7.37809 31.1347C7.75035 30.917 8.04057 30.6177 8.24859 30.2368C8.46761 29.8449 8.57708 29.4096 8.57708 28.9306V21.3878H11.1229V29.0939C11.1229 29.9864 10.9039 30.7864 10.4659 31.4939C10.0389 32.1905 9.44758 32.7402 8.69205 33.1429C7.93652 33.5456 7.07695 33.747 6.1134 33.747ZM12.9565 33.551V21.1919H15.4201V29.1102L14.5004 28.8163L18.4587 24.6368H21.4972L18.2452 28.2286L21.4808 33.551H18.6886L15.9786 29.0286L17.4075 28.6694L14.6646 31.6408L15.4201 30.2204V33.551H12.9565ZM22.5802 33.551V24.6368H24.8796V26.7755L24.7154 26.4653C24.9125 25.7143 25.2355 25.2082 25.6844 24.947C26.1443 24.6749 26.6863 24.5388 27.3105 24.5388H27.8361V26.6612H27.0641C26.4619 26.6612 25.9746 26.8463 25.6023 27.2163C25.23 27.5755 25.0439 28.0871 25.0439 28.751V33.551H22.5802ZM31.6916 33.747C31.0456 33.747 30.4871 33.6435 30.0163 33.4368C29.5454 33.23 29.1841 32.9361 28.9323 32.5551C28.6804 32.1633 28.5545 31.7007 28.5545 31.1674C28.5545 30.6667 28.6695 30.2259 28.8995 29.8449C29.1294 29.4531 29.4797 29.1265 29.9506 28.8653C30.4324 28.6041 31.0292 28.419 31.7409 28.3102L34.4838 27.8694V29.6653L32.1844 30.0735C31.834 30.1388 31.5657 30.2531 31.3796 30.4163C31.1934 30.5688 31.1004 30.7919 31.1004 31.0857C31.1004 31.3578 31.2043 31.5701 31.4124 31.7225C31.6204 31.8749 31.8777 31.951 32.1844 31.951C32.5895 31.951 32.9453 31.8639 33.252 31.6898C33.5585 31.5157 33.794 31.2817 33.9582 30.9878C34.1334 30.683 34.221 30.351 34.221 29.9919V27.6735C34.221 27.3361 34.0841 27.0531 33.8104 26.8245C33.5476 26.5959 33.1863 26.4817 32.7264 26.4817C32.2883 26.4817 31.8997 26.6014 31.5602 26.8408C31.2318 27.0803 30.9908 27.3959 30.8376 27.7878L28.8666 26.8572C29.0418 26.3565 29.321 25.9265 29.7043 25.5674C30.0875 25.2082 30.5473 24.9306 31.0839 24.7347C31.6204 24.5388 32.2062 24.4408 32.8413 24.4408C33.5969 24.4408 34.2648 24.5769 34.8452 24.849C35.4254 25.1211 35.8744 25.5021 36.192 25.9919C36.5205 26.4708 36.6846 27.0313 36.6846 27.6735V33.551H34.3853V32.1143L34.9437 32.0163C34.6809 32.4082 34.3907 32.7347 34.0732 32.9959C33.7556 33.2463 33.3998 33.4313 33.0056 33.551C32.6114 33.6817 32.1734 33.747 31.6916 33.747ZM38.4912 33.551V24.6368H40.9549V33.551H38.4912ZM38.4912 23.8368V21.3878H40.9549V23.8368H38.4912ZM42.7583 33.551V24.6368H45.0577V26.4L44.9263 26.0082C45.1341 25.4749 45.4683 25.083 45.9282 24.8327C46.3988 24.5714 46.9465 24.4408 47.5707 24.4408C48.249 24.4408 48.8403 24.5823 49.3445 24.8653C49.8586 25.1483 50.2586 25.5456 50.5435 26.0572C50.8277 26.5578 50.9706 27.1456 50.9706 27.8204V33.551H48.5069V28.3429C48.5069 27.9945 48.4354 27.6953 48.2934 27.4449C48.162 27.1945 47.9698 26.9986 47.7185 26.8572C47.4771 26.7157 47.1929 26.6449 46.8644 26.6449C46.5466 26.6449 46.2616 26.7157 46.0103 26.8572C45.7582 26.9986 45.5611 27.1945 45.4191 27.4449C45.2877 27.6953 45.222 27.9945 45.222 28.3429V33.551H42.7583ZM56.9097 33.747C55.9571 33.747 55.1309 33.5402 54.4296 33.1265C53.7291 32.7021 53.1871 32.1361 52.8036 31.4286C52.4209 30.7211 52.2287 29.9374 52.2287 29.0776C52.2287 28.1851 52.4258 27.3905 52.82 26.6939C53.2257 25.9973 53.7677 25.4476 54.446 25.0449C55.1252 24.6422 55.8914 24.4408 56.7454 24.4408C57.4575 24.4408 58.0873 24.5551 58.6343 24.7837C59.182 25.0014 59.6419 25.3116 60.0139 25.7143C60.3975 26.117 60.6874 26.5851 60.8844 27.1184C61.0815 27.6408 61.1801 28.2123 61.1801 28.8327C61.1801 29.0068 61.1694 29.181 61.1472 29.3551C61.1366 29.5184 61.1095 29.6599 61.0651 29.7796H54.3475V27.9837H59.669L58.5029 28.8327C58.6129 28.3647 58.6072 27.951 58.4865 27.5919C58.3666 27.2218 58.153 26.9333 57.8459 26.7265C57.5503 26.5088 57.184 26.4 56.7454 26.4C56.3184 26.4 55.9521 26.5034 55.645 26.7102C55.3387 26.917 55.1087 27.2218 54.9552 27.6245C54.8024 28.0272 54.7417 28.517 54.7745 29.0939C54.731 29.5945 54.7909 30.0354 54.9552 30.4163C55.1194 30.7973 55.3715 31.0966 55.7107 31.3143C56.0507 31.5211 56.4613 31.6245 56.9425 31.6245C57.3811 31.6245 57.7531 31.5374 58.0594 31.3633C58.3772 31.1892 58.6236 30.9496 58.7985 30.6449L60.7695 31.5755C60.5946 32.0109 60.3153 32.3919 59.9318 32.7184C59.5598 33.0449 59.1163 33.3007 58.6014 33.4857C58.0873 33.6599 57.5232 33.747 56.9097 33.747Z" fill="#FAFAFA"/>
</svg>
