<svg width="338" height="25" viewBox="0 0 338 25" fill="none" xmlns="http://www.w3.org/2000/svg">
<path d="M1 24L18.6269 8.38759C28.5437 -0.39585 43.4563 -0.395857 53.3731 8.38758L53.9669 8.91354C63.6539 17.4934 78.2516 17.3883 87.8139 8.66966L88.2619 8.2612C97.7271 -0.368851 112.322 -0.224011 121.724 8.47566V8.47566C131.117 17.1681 145.878 17.0694 155.206 8.30672V8.30672C164.322 -0.257023 178.634 -0.495034 187.877 7.93211L189.774 9.662C198.47 17.5902 211.939 16.9964 219.903 8.33379V8.33379C227.746 -0.197529 240.96 -0.922103 249.689 6.70048L252.569 9.21551C262.179 17.6066 276.584 17.3449 285.883 8.61037V8.61037C295.279 -0.216578 309.869 -0.378133 319.459 8.23859L337 24" stroke="#02447B"/>
</svg>
