<svg width="46" height="46" viewBox="0 0 46 46" fill="none" xmlns="http://www.w3.org/2000/svg">
<path d="M30 21.228V21.2533M5.87666 14.5988C4.79999 13.7465 3.97307 12.6042 3.48731 11.2982C3.00155 9.99213 2.87586 8.57317 3.12413 7.19815C3.37241 5.82313 3.98498 4.54558 4.89414 3.5067C5.8033 2.46782 6.97365 1.70807 8.27583 1.31143C9.57801 0.914778 10.9613 0.896674 12.2729 1.25912C13.5844 1.62156 14.7731 2.35044 15.7076 3.36518C16.6421 4.37993 17.286 5.64104 17.5681 7.00912C17.8502 8.37721 17.7596 9.79899 17.3062 11.1173" stroke="#2B2B2B" stroke-width="2" stroke-linecap="round" stroke-linejoin="round"/>
<path d="M32.7809 4.49341V13.555C35.806 15.2613 38.1091 17.9617 39.2779 21.1726H42.5557C43.204 21.1726 43.8257 21.4236 44.2841 21.8705C44.7425 22.3173 45 22.9234 45 23.5553V28.3208C45 28.9528 44.7425 29.5588 44.2841 30.0057C43.8257 30.4525 43.204 30.7036 42.5557 30.7036H39.2754C38.4541 32.9672 37.0584 34.9925 35.2227 36.5961V41.4259C35.2227 42.3738 34.8365 43.2829 34.1489 43.9532C33.4613 44.6235 32.5287 45 31.5563 45C30.5839 45 29.6513 44.6235 28.9637 43.9532C28.2761 43.2829 27.8898 42.3738 27.8898 41.4259V40.0368C27.0821 40.1687 26.2645 40.2348 25.4455 40.2345H15.6682C14.8493 40.2348 14.0317 40.1687 13.2239 40.0368V41.4259C13.2239 42.3738 12.8376 43.2829 12.15 43.9532C11.4624 44.6235 10.5299 45 9.55746 45C8.58505 45 7.65247 44.6235 6.96487 43.9532C6.27728 43.2829 5.89099 42.3738 5.89099 41.4259V36.5961C3.67635 34.666 2.1152 32.1258 1.41419 29.3117C0.713176 26.4977 0.905352 23.5424 1.96528 20.8372C3.02521 18.1319 4.90291 15.8042 7.34984 14.1622C9.79678 12.5201 12.6976 11.6412 15.6682 11.6416H21.779L32.7784 4.49341H32.7809Z" stroke="#2B2B2B" stroke-width="2" stroke-linecap="round" stroke-linejoin="round"/>
</svg>
