<svg width="46" height="46" viewBox="0 0 46 46" fill="none" xmlns="http://www.w3.org/2000/svg">
<path d="M44.8735 17.6111C44.7292 17.1344 44.4506 16.7135 44.0738 16.4028C43.6969 16.0921 43.2391 15.9058 42.7593 15.8679L30.6502 14.7806C30.503 14.7664 30.3623 14.7108 30.2432 14.6199C30.1241 14.529 30.031 14.4061 29.974 14.2644L25.2424 2.55529C25.0575 2.0947 24.7456 1.70123 24.3458 1.42446C23.946 1.14769 23.4762 1 22.9958 1C22.5153 1 22.0456 1.14769 21.6458 1.42446C21.246 1.70123 20.934 2.0947 20.7491 2.55529L16.0237 14.2644C15.9666 14.4061 15.8736 14.529 15.7544 14.6199C15.6353 14.7108 15.4946 14.7664 15.3474 14.7806L3.24448 15.8679C2.76375 15.9089 2.30542 16.0966 1.92722 16.4075C1.54902 16.7185 1.26785 17.1387 1.11911 17.6152C0.970371 18.0918 0.96072 18.6034 1.09137 19.0856C1.22202 19.5678 1.48713 19.9992 1.85332 20.3252L11.0395 28.6496C11.1542 28.7517 11.2393 28.8849 11.2854 29.0343C11.3314 29.1837 11.3366 29.3435 11.3002 29.4958L8.54028 41.8734C8.42654 42.3618 8.45638 42.8744 8.62593 43.345C8.79549 43.8156 9.09698 44.2226 9.49149 44.5135C9.87709 44.8092 10.3393 44.978 10.8182 44.998C11.2972 45.018 11.7709 44.8883 12.1781 44.6256L22.5864 38.0677C22.7113 37.9877 22.8552 37.9454 23.0019 37.9454C23.1486 37.9454 23.2925 37.9877 23.4174 38.0677L33.8257 44.6256C34.2371 44.8818 34.7121 45.0065 35.1913 44.9843C35.6705 44.9621 36.1329 44.7939 36.5207 44.5007C36.9085 44.2075 37.2047 43.8022 37.3724 43.3354C37.54 42.8686 37.5717 42.3609 37.4635 41.8755L34.7097 29.4916C34.6733 29.3393 34.6785 29.1795 34.7245 29.0301C34.7705 28.8806 34.8557 28.7474 34.9704 28.6454L44.1566 20.321C44.5222 19.9947 44.7857 19.5625 44.9134 19.0797C45.0412 18.597 45.0273 18.0856 44.8735 17.6111ZM43.0852 19.0496L33.899 27.374C33.5627 27.677 33.3125 28.0697 33.1754 28.5096C33.0383 28.9495 33.0194 29.42 33.1209 29.8702L35.8747 42.2499C35.9132 42.4141 35.9035 42.5864 35.8469 42.7447C35.7903 42.9031 35.6893 43.0402 35.557 43.1384C35.4299 43.2363 35.2774 43.2921 35.1193 43.2985C34.9613 43.3049 34.805 43.2617 34.671 43.1744L24.2627 36.6165C23.883 36.3757 23.4467 36.2483 23.0019 36.2483C22.557 36.2483 22.1208 36.3757 21.7411 36.6165L11.3328 43.1744C11.1988 43.2617 11.0425 43.3049 10.8844 43.2985C10.7264 43.2921 10.5738 43.2363 10.4468 43.1384C10.3145 43.0402 10.2135 42.9031 10.1569 42.7447C10.1003 42.5864 10.0905 42.4141 10.129 42.2499L12.8828 29.866C12.9843 29.4158 12.9655 28.9453 12.8284 28.5054C12.6913 28.0654 12.4411 27.6728 12.1048 27.3697L2.91859 19.0496C2.79492 18.9394 2.70591 18.7932 2.66307 18.6299C2.62022 18.4666 2.62551 18.2937 2.67824 18.1336C2.7274 17.9761 2.82 17.837 2.94455 17.7336C3.0691 17.6301 3.22012 17.567 3.37891 17.5518L15.488 16.4645C15.9308 16.4235 16.3544 16.2578 16.7134 15.9854C17.0723 15.7129 17.3528 15.3439 17.5248 14.9181L22.2544 3.20686C22.3181 3.0567 22.4225 2.92904 22.5549 2.83941C22.6872 2.74979 22.8418 2.70207 22.9998 2.70207C23.1579 2.70207 23.3125 2.74979 23.4448 2.83941C23.5772 2.92904 23.6816 3.0567 23.7453 3.20686L28.4749 14.9181C28.6469 15.3439 28.9274 15.7129 29.2863 15.9854C29.6452 16.2578 30.0689 16.4235 30.5117 16.4645L42.6208 17.5518C42.7796 17.567 42.9306 17.6301 43.0551 17.7336C43.1797 17.837 43.2723 17.9761 43.3215 18.1336C43.3747 18.2933 43.3806 18.4659 43.3385 18.6292C43.2964 18.7925 43.2081 18.9389 43.0852 19.0496Z" fill="#2B2B2B" stroke="#2B2B2B" stroke-width="0.5"/>
</svg>
