<svg width="263" height="262" viewBox="0 0 263 262" fill="none" xmlns="http://www.w3.org/2000/svg">
<path d="M126.014 5.60199C126.507 -1.2012 136.493 -1.20122 136.986 5.60202L141.626 69.6242C142.071 75.7703 150.021 77.9045 153.485 72.8078L189.577 19.6983C193.412 14.0562 202.055 19.0582 199.073 25.1937L171.044 82.8713C168.348 88.4175 174.169 94.2488 179.72 91.5639L237.491 63.6233C243.633 60.6527 248.618 69.3081 242.967 73.1305L189.88 109.034C184.769 112.491 186.9 120.458 193.054 120.902L256.999 125.514C263.805 126.005 263.805 135.995 256.999 136.486L193.054 141.098C186.9 141.542 184.769 149.509 189.88 152.966L242.967 188.87C248.618 192.692 243.633 201.347 237.491 198.377L179.72 170.436C174.169 167.751 168.348 173.583 171.044 179.129L199.073 236.806C202.055 242.942 193.412 247.944 189.577 242.302L153.485 189.192C150.021 184.096 142.071 186.23 141.626 192.376L136.986 256.398C136.493 263.201 126.507 263.201 126.014 256.398L121.374 192.376C120.929 186.23 112.979 184.095 109.515 189.192L73.4225 242.302C69.5882 247.944 60.9451 242.942 63.9267 236.806L91.9564 179.129C94.6517 173.583 88.8314 167.751 83.2802 170.436L25.5091 198.377C19.3669 201.347 14.3815 192.692 20.0331 188.87L73.1195 152.966C78.2309 149.509 76.1003 141.542 69.9456 141.098L6.00124 136.486C-0.804489 135.995 -0.804497 126.005 6.00125 125.514L69.9456 120.902C76.1003 120.458 78.2308 112.491 73.1195 109.034L20.0331 73.1305C14.3815 69.3081 19.3668 60.6527 25.509 63.6233L83.2801 91.5639C88.8314 94.2488 94.6517 88.4175 91.9564 82.8713L63.9267 25.1937C60.9451 19.0582 69.5882 14.0562 73.4225 19.6983L109.515 72.8078C112.979 77.9045 120.929 75.7703 121.374 69.6242L126.014 5.60199Z" stroke="#FFAD33"/>
</svg>
