<svg width="38" height="44" viewBox="0 0 38 44" fill="none" xmlns="http://www.w3.org/2000/svg">
<path d="M36.9395 37.7695C37.14 38.099 37.2904 38.4356 37.3906 38.7793C37.4909 39.1231 37.541 39.4883 37.541 39.875C37.541 40.4479 37.4336 40.985 37.2188 41.4863C37.0039 41.9876 36.7103 42.4245 36.3379 42.7969C35.9655 43.1693 35.5286 43.4629 35.0273 43.6777C34.526 43.8926 33.9889 44 33.416 44H4.60547C4.03255 44 3.49544 43.8926 2.99414 43.6777C2.49284 43.4629 2.05599 43.1693 1.68359 42.7969C1.3112 42.4245 1.01758 41.9876 0.802734 41.4863C0.587891 40.985 0.480469 40.4479 0.480469 39.875C0.480469 39.4883 0.523438 39.1231 0.609375 38.7793C0.695313 38.4356 0.845703 38.099 1.06055 37.7695L13.2852 16.457C13.4284 16.2565 13.5 16.013 13.5 15.7266V2.75H10.75V0H27.25V2.75H24.5V15.7266C24.5 15.9987 24.5716 16.2493 24.7148 16.4785L36.9395 37.7695ZM16.25 15.7266C16.25 16.4857 16.0566 17.1947 15.6699 17.8535L8.55859 30.25H29.4414L22.3301 17.8535C21.9434 17.1947 21.75 16.4857 21.75 15.7266V2.75H16.25V15.7266ZM33.416 41.25C33.7884 41.25 34.1035 41.1139 34.3613 40.8418C34.6191 40.5697 34.7552 40.2474 34.7695 39.875C34.7695 39.7318 34.7552 39.61 34.7266 39.5098C34.6979 39.4095 34.6406 39.2949 34.5547 39.166L31.0313 33H6.96875L3.42383 39.166C3.29492 39.3809 3.23047 39.6172 3.23047 39.875C3.23047 40.2474 3.35938 40.5697 3.61719 40.8418C3.875 41.1139 4.20443 41.25 4.60547 41.25H33.416Z" fill="#2B2B2B"/>
</svg>
