<svg width="40" height="40" viewBox="0 0 40 40" fill="none" xmlns="http://www.w3.org/2000/svg">
<path fill-rule="evenodd" clip-rule="evenodd" d="M0.291504 19.9998C0.291504 9.11534 9.11534 0.291504 19.9998 0.291504C30.8843 0.291504 39.7082 9.11534 39.7082 19.9998V30.3288C39.7082 32.0027 39.7082 33.1265 39.4313 34.111C39.1691 35.0599 38.7113 35.9434 38.0874 36.7049C37.4636 37.4665 36.6874 38.0891 35.8087 38.533C34.9012 38.984 33.8177 39.1618 32.2502 39.4203L32.0283 39.457L31.988 39.4625C31.4307 39.5542 30.9522 39.6348 30.5543 39.6752C30.1285 39.7296 29.6969 39.7179 29.2747 39.6403C28.5711 39.4902 27.9183 39.1604 27.3802 38.6829C26.842 38.2055 26.4367 37.5967 26.2038 36.916C26.0703 36.507 25.9956 36.0811 25.982 35.651C25.9582 35.2385 25.9582 34.7343 25.9582 34.1422V25.6575C25.9582 24.783 25.9582 24.057 26.1415 23.4355C26.3467 22.734 26.7323 22.0987 27.2599 21.593C27.7876 21.0872 28.4387 20.7288 29.1482 20.5535C29.7788 20.4013 30.4993 20.4618 31.3207 20.5315L31.5077 20.5462L31.7277 20.5645C33.2677 20.6928 34.3328 20.779 35.2367 21.1292C35.8618 21.3712 36.4393 21.7012 36.9582 22.1045V19.9998C36.9582 15.5022 35.1715 11.1888 31.9912 8.00849C28.8109 4.82818 24.4975 3.0415 19.9998 3.0415C15.5022 3.0415 11.1888 4.82818 8.00849 8.00849C4.82818 11.1888 3.0415 15.5022 3.0415 19.9998V22.1045C3.56034 21.7012 4.13784 21.3712 4.763 21.1292C5.66684 20.779 6.73017 20.691 8.27017 20.5645L8.49017 20.5462L8.679 20.5315C9.50034 20.4618 10.219 20.4032 10.8533 20.5535C12.3017 20.9018 13.431 22.0165 13.8563 23.4355C14.0433 24.0552 14.0433 24.783 14.0415 25.6575V34.1422C14.0415 34.7362 14.0415 35.2385 14.0177 35.651C14.0045 36.081 13.9305 36.5069 13.7977 36.916C13.5647 37.597 13.1591 38.2059 12.6206 38.6833C12.0821 39.1608 11.429 39.4905 10.725 39.6403C10.3028 39.7179 9.87114 39.7296 9.44534 39.6752C8.96552 39.618 8.48744 39.547 8.01167 39.4625L7.97134 39.457C7.89802 39.4447 7.82469 39.4325 7.75134 39.4203C6.182 39.1618 5.0985 38.984 4.191 38.5312C3.31249 38.0875 2.53642 37.4651 1.91256 36.7039C1.2887 35.9427 0.830838 35.0595 0.568337 34.111C0.330004 33.264 0.297004 32.3143 0.293337 30.9998V30.7395L0.291504 30.327V19.9998ZM3.0415 30.1088C3.0415 32.0852 3.05434 32.7947 3.21567 33.363C3.37382 33.9423 3.65119 34.4823 4.03003 34.9482C4.40886 35.4142 4.88081 35.7959 5.41567 36.069C5.90517 36.3128 6.54317 36.4338 8.4205 36.7437C9.02734 36.8445 9.42334 36.9087 9.72584 36.9398C10.0228 36.9692 10.1292 36.9563 10.1713 36.9472C10.4097 36.8927 10.6299 36.7775 10.8104 36.6127C10.991 36.4479 11.1258 36.2391 11.2017 36.0067C11.2237 35.9443 11.2548 35.8142 11.2732 35.4952C11.2915 35.1707 11.2915 34.7453 11.2915 34.1037V25.8427C11.2915 24.6803 11.2768 24.4053 11.2237 24.2275C11.1568 23.9872 11.0282 23.7685 10.8507 23.5932C10.6732 23.4179 10.4529 23.2921 10.2117 23.2283C10.0687 23.1935 9.8395 23.1953 8.7175 23.287C6.8695 23.4392 6.23884 23.507 5.75484 23.694C5.13093 23.9439 4.57463 24.3372 4.13095 24.842C3.68728 25.3468 3.3687 25.949 3.201 26.5998C3.05434 27.148 3.0415 27.841 3.0415 29.7678V30.1088ZM19.9998 8.5415C20.3645 8.5415 20.7142 8.68637 20.9721 8.94423C21.23 9.2021 21.3748 9.55183 21.3748 9.9165V19.0832C21.3748 19.4478 21.23 19.7976 20.9721 20.0554C20.7142 20.3133 20.3645 20.4582 19.9998 20.4582C19.6352 20.4582 19.2854 20.3133 19.0276 20.0554C18.7697 19.7976 18.6248 19.4478 18.6248 19.0832V9.9165C18.6248 9.55183 18.7697 9.2021 19.0276 8.94423C19.2854 8.68637 19.6352 8.5415 19.9998 8.5415ZM14.4998 11.2915C14.8645 11.2915 15.2142 11.4364 15.4721 11.6942C15.73 11.9521 15.8748 12.3018 15.8748 12.6665V16.3332C15.8748 16.6978 15.73 17.0476 15.4721 17.3054C15.2142 17.5633 14.8645 17.7082 14.4998 17.7082C14.1352 17.7082 13.7854 17.5633 13.5276 17.3054C13.2697 17.0476 13.1248 16.6978 13.1248 16.3332V12.6665C13.1248 12.3018 13.2697 11.9521 13.5276 11.6942C13.7854 11.4364 14.1352 11.2915 14.4998 11.2915ZM25.4998 11.2915C25.8645 11.2915 26.2142 11.4364 26.4721 11.6942C26.73 11.9521 26.8748 12.3018 26.8748 12.6665V16.3332C26.8748 16.6978 26.73 17.0476 26.4721 17.3054C26.2142 17.5633 25.8645 17.7082 25.4998 17.7082C25.1352 17.7082 24.7854 17.5633 24.5276 17.3054C24.2697 17.0476 24.1248 16.6978 24.1248 16.3332V12.6665C24.1248 12.3018 24.2697 11.9521 24.5276 11.6942C24.7854 11.4364 25.1352 11.2915 25.4998 11.2915ZM31.2822 23.287C30.1602 23.1953 29.931 23.1935 29.788 23.2283C29.5468 23.2921 29.3265 23.4179 29.149 23.5932C28.9715 23.7685 28.8429 23.9872 28.776 24.2275C28.7228 24.4053 28.7082 24.6803 28.7082 25.8427V34.1037C28.7082 34.7453 28.7082 35.1707 28.7265 35.497C28.7448 35.8142 28.776 35.9443 28.7998 36.0067C28.8756 36.2389 29.0101 36.4475 29.1903 36.6123C29.3705 36.7771 29.5903 36.8925 29.8283 36.9472C29.9764 36.9658 30.1264 36.9633 30.2738 36.9398C30.5782 36.9087 30.9705 36.8445 31.581 36.7437C33.4565 36.432 34.0945 36.3128 34.584 36.0708C35.1191 35.7976 35.5911 35.4155 35.97 34.9493C36.3488 34.483 36.6261 33.9427 36.784 33.363C36.9453 32.7947 36.9582 32.0852 36.9582 30.1088V29.7678C36.9582 27.8428 36.9472 27.1462 36.7987 26.5998C36.6307 25.9491 36.312 25.3471 35.8684 24.8423C35.4248 24.3375 34.8686 23.9441 34.2448 23.694C33.7608 23.5052 33.1302 23.4392 31.2822 23.287Z" fill="#2B2B2B"/>
</svg>
