<svg width="40" height="36" viewBox="0 0 40 36" fill="none" xmlns="http://www.w3.org/2000/svg">
<path d="M4.74665 19.8332L3.77865 20.8085C4.03616 21.0638 4.38407 21.207 4.74665 21.207C5.10924 21.207 5.45714 21.0638 5.71465 20.8085L4.74665 19.8332ZM8.79465 17.7542C9.05381 17.497 9.20018 17.1474 9.20155 16.7822C9.20293 16.4171 9.0592 16.0664 8.80198 15.8072C8.67462 15.6789 8.52324 15.5769 8.35646 15.5071C8.18969 15.4373 8.0108 15.401 7.83 15.4003C7.46487 15.3989 7.11415 15.5427 6.85498 15.7999L8.79282 17.7524L8.79465 17.7542ZM2.63465 15.7999C2.3743 15.5503 2.02632 15.413 1.66568 15.4176C1.30505 15.4221 0.960657 15.5682 0.706717 15.8243C0.452777 16.0804 0.309626 16.426 0.308118 16.7867C0.306609 17.1474 0.446862 17.4942 0.698651 17.7524L2.63465 15.7999ZM32.1293 9.55188C32.2215 9.71059 32.3445 9.84924 32.4911 9.95966C32.6377 10.0701 32.8049 10.15 32.9829 10.1948C33.1609 10.2396 33.346 10.2483 33.5274 10.2204C33.7088 10.1925 33.8828 10.1285 34.0391 10.0323C34.1954 9.93613 34.3308 9.80961 34.4375 9.66023C34.5441 9.51086 34.6198 9.34164 34.66 9.16257C34.7002 8.9835 34.7041 8.79819 34.6716 8.61757C34.639 8.43694 34.5707 8.26466 34.4705 8.11088L32.1293 9.55188ZM28.9705 2.61272C28.8167 2.51254 28.6444 2.44417 28.4638 2.41163C28.2832 2.37909 28.0979 2.38304 27.9188 2.42324C27.7397 2.46345 27.5705 2.53909 27.4211 2.64572C27.2718 2.75236 27.1452 2.88781 27.049 3.04411C26.9528 3.20041 26.8889 3.37438 26.861 3.55578C26.8331 3.73717 26.8418 3.92232 26.8866 4.10031C26.9313 4.27829 27.0113 4.44551 27.1217 4.59211C27.2321 4.73871 27.3708 4.86171 27.5295 4.95388L28.9705 2.61272ZM20.8488 2.88955C21.2097 2.90188 21.5609 2.77178 21.8266 2.52736C22.0923 2.28294 22.2513 1.9438 22.2691 1.58319C22.2869 1.22258 22.1622 0.86943 21.9218 0.600007C21.6815 0.330584 21.3448 0.166509 20.9845 0.143215L20.8488 2.88955ZM20.1467 0.124882C10.8938 0.124882 3.37165 7.57005 3.37165 16.777H6.12165C6.12165 9.11005 12.3917 2.87488 20.1467 2.87488V0.124882ZM3.37165 16.777V19.8332H6.12165V16.777H3.37165ZM5.71832 20.8104L8.79465 17.7542L6.85498 15.7999L3.77498 18.856L5.71282 20.8067L5.71832 20.8104ZM5.71832 18.8579L2.63465 15.7999L0.696818 17.7524L3.77682 20.8067L5.71282 18.856L5.71832 18.8579ZM34.4723 8.11455C33.0947 5.87601 31.2109 3.99214 28.9723 2.61455L27.5313 4.95572C29.4033 6.10732 30.9788 7.68222 32.1312 9.55371L34.4723 8.11455ZM20.9845 0.143215C20.7048 0.129643 20.4248 0.122919 20.1448 0.123049V2.87305C20.3813 2.87305 20.616 2.87855 20.8488 2.89138L20.9845 0.143215ZM35.2405 16.1665L36.2085 15.1894C35.9511 14.9347 35.6035 14.7918 35.2414 14.7918C34.8793 14.7918 34.5317 14.9347 34.2743 15.1894L35.2405 16.1665ZM31.1833 18.2437C31.0549 18.3707 30.9527 18.5218 30.8826 18.6883C30.8126 18.8547 30.776 19.0334 30.775 19.214C30.7729 19.5788 30.9158 19.9295 31.1723 20.1889C31.4288 20.4483 31.7778 20.5952 32.1426 20.5972C32.5074 20.5993 32.8581 20.4564 33.1175 20.1999L31.1833 18.2437ZM37.3671 20.1999C37.4948 20.3302 37.6472 20.4338 37.8153 20.5046C37.9835 20.5755 38.164 20.6121 38.3465 20.6125C38.5289 20.6129 38.7096 20.5769 38.878 20.5068C39.0465 20.4366 39.1992 20.3336 39.3274 20.2038C39.4557 20.074 39.5568 19.92 39.6249 19.7507C39.693 19.5815 39.7267 19.4003 39.7241 19.2179C39.7215 19.0355 39.6826 18.8554 39.6097 18.6881C39.5368 18.5209 39.4314 18.3698 39.2995 18.2437L37.3671 20.1999ZM7.74965 26.4442C7.55808 26.1338 7.25102 25.9121 6.89603 25.8281C6.54104 25.744 6.16719 25.8044 5.85673 25.996C5.54628 26.1875 5.32464 26.4946 5.24057 26.8496C5.15651 27.2046 5.21691 27.5784 5.40848 27.8889L7.74965 26.4442ZM19.1438 33.1102C18.7794 33.0942 18.4235 33.2235 18.1545 33.4699C17.8854 33.7162 17.7253 34.0594 17.7092 34.4238C17.6932 34.7882 17.8226 35.1441 18.0689 35.4131C18.3153 35.6822 18.6584 35.8423 19.0228 35.8584L19.1438 33.1102ZM11.0405 33.4549C11.3529 33.6431 11.7272 33.6994 12.0812 33.6116C12.4352 33.5237 12.7397 33.2989 12.9279 32.9865C13.1161 32.6741 13.1724 32.2997 13.0846 31.9457C12.9967 31.5918 12.7719 31.2872 12.4595 31.099L11.0405 33.4549ZM19.7855 35.8749C29.0658 35.8749 36.6155 28.4352 36.6155 19.2227H33.8655C33.8655 26.886 27.5772 33.1249 19.7855 33.1249V35.8749ZM36.6155 19.2227V16.1665H33.8655V19.2227H36.6155ZM34.2743 15.1894L31.1833 18.2437L33.1175 20.1999L36.2085 17.1437L34.2743 15.1894ZM34.2743 17.1437L37.3671 20.1999L39.2995 18.2437L36.2085 15.1894L34.2743 17.1437ZM19.021 35.8584C19.2758 35.8694 19.5288 35.8749 19.7855 35.8749V33.1249C19.5715 33.1246 19.3576 33.1197 19.1438 33.1102L19.0228 35.8584H19.021ZM5.40848 27.8889C6.81627 30.1659 8.74707 32.074 11.0405 33.4549L12.4595 31.099C10.541 29.9444 8.92751 28.3486 7.74965 26.4442L5.40848 27.8889Z" fill="#2B2B2B"/>
</svg>
