<svg width="315" height="314" viewBox="0 0 315 314" fill="none" xmlns="http://www.w3.org/2000/svg">
<path d="M153.025 5.70566C153.592 0.335258 161.408 0.335278 161.975 5.70565L170.13 82.9864C170.85 89.815 179.607 92.1655 183.65 86.6156L229.44 23.7642C232.62 19.3989 239.387 23.3149 237.186 28.2473L205.545 99.1743C202.746 105.45 209.157 111.873 215.438 109.085L286.517 77.5276C291.454 75.3355 295.358 82.1126 290.984 85.2837L228.102 130.876C222.534 134.913 224.882 143.689 231.721 144.407L309.02 152.525C314.393 153.089 314.393 160.911 309.02 161.475L231.721 169.593C224.882 170.311 222.534 179.087 228.102 183.124L290.984 228.716C295.358 231.887 291.454 238.665 286.517 236.472L215.438 204.915C209.157 202.127 202.746 208.55 205.545 214.826L237.186 285.753C239.387 290.685 232.62 294.601 229.439 290.236L183.65 227.384C179.607 221.835 170.85 224.185 170.13 231.014L161.975 308.294C161.408 313.665 153.592 313.665 153.025 308.294L144.87 231.014C144.15 224.185 135.393 221.835 131.35 227.384L85.5605 290.236C82.3802 294.601 75.6134 290.685 77.8138 285.753L109.455 214.826C112.254 208.55 105.843 202.127 99.5621 204.915L28.4831 236.472C23.5456 238.664 19.642 231.887 24.0156 228.716L86.8983 183.124C92.4657 179.087 90.1183 170.311 83.2792 169.593L5.98008 161.475C0.606705 160.911 0.606705 153.089 5.98008 152.525L83.2792 144.407C90.1183 143.689 92.4657 134.913 86.8983 130.876L24.0156 85.2836C19.642 82.1126 23.5455 75.3355 28.4831 77.5276L99.5622 109.085C105.843 111.873 112.254 105.45 109.455 99.1743L77.8138 28.2473C75.6134 23.3149 82.3803 19.399 85.5605 23.7642L131.35 86.6156C135.393 92.1655 144.15 89.8149 144.87 82.9864L153.025 5.70566Z" stroke="#F6F6F6" stroke-width="3"/>
</svg>
