<svg width="220" height="50" viewBox="0 0 220 50" fill="none" xmlns="http://www.w3.org/2000/svg">
<path d="M182.187 34.8609L191.163 15.5859H183.576L177.531 29.0319L171.101 15.5859H162.819L172.49 34.8609H182.187ZM201.43 20.2759H209.815C211.461 20.2759 212.027 21.0009 212.027 21.9079V21.9329C212.027 22.8659 211.435 23.5919 209.815 23.5919H201.43V20.2759ZM201.43 28.2549H208.426C211.307 28.2549 212.31 29.3949 212.31 31.5969V33.8509C212.31 34.3949 212.361 34.6539 212.541 34.8609H220V34.7309C219.82 34.3949 219.64 33.9019 219.64 32.5549V29.7049C219.64 27.2189 218.071 25.6649 215.705 25.1199C217.145 24.7829 219.563 23.6169 219.563 20.8199V20.5349C219.563 17.3999 217.094 15.5859 211.512 15.5859H194.125V34.8609H201.43V28.2549Z" fill="white"/>
<path d="M127.279 16.744C127.279 16.261 127.279 16.019 127.185 15.834C127.103 15.672 126.972 15.5401 126.811 15.457C126.627 15.363 126.387 15.363 125.907 15.363H121.372C120.892 15.363 120.652 15.363 120.468 15.457C120.307 15.5403 120.175 15.6722 120.093 15.834C120 16.019 120 16.261 120 16.744V33.256C120 33.739 120 33.981 120.093 34.166C120.175 34.3278 120.307 34.4597 120.468 34.543C120.652 34.637 120.892 34.637 121.372 34.637H125.907C126.387 34.637 126.627 34.637 126.811 34.543C126.972 34.4599 127.103 34.328 127.185 34.166C127.279 33.981 127.279 33.739 127.279 33.256V16.744ZM145.692 35C157.215 35 159.015 29.56 159.015 27.047C159.015 26.9928 159.005 26.939 158.984 26.8888C158.964 26.8386 158.934 26.7929 158.895 26.7544C158.857 26.7158 158.812 26.6852 158.762 26.6642C158.712 26.6432 158.658 26.6323 158.604 26.632H152.54C152.194 26.632 152.021 26.632 151.898 26.67C151.786 26.6961 151.684 26.7521 151.601 26.832C151.502 26.914 151.346 27.154 151.035 27.634C150.425 28.572 148.925 29.793 145.152 29.793C140.008 29.793 138.722 27.073 138.722 25V24.69C138.722 22.539 139.854 20.181 145.126 20.181C148.923 20.181 150.402 21.319 151.006 22.204C151.307 22.644 151.457 22.864 151.555 22.944C151.637 23.0201 151.738 23.0735 151.847 23.099C151.967 23.135 152.127 23.135 152.448 23.135H158.681C158.725 23.1349 158.769 23.126 158.809 23.109C158.85 23.092 158.887 23.0671 158.918 23.0358C158.949 23.0045 158.974 22.9674 158.99 22.9266C159.007 22.8858 159.015 22.8421 159.015 22.798C159.015 20.311 157.318 15 145.692 15H144.689C132.755 15 131.16 20.88 131.16 24.56V25.31C131.16 28.964 132.935 35 144.689 35H145.692ZM182.187 34.861L191.163 15.586H183.576L177.531 29.032L171.101 15.586H162.819L172.49 34.861H182.187ZM201.43 20.276H209.815C211.461 20.276 212.027 21.001 212.027 21.908V21.933C212.027 22.866 211.435 23.592 209.815 23.592H201.43V20.276ZM201.43 28.255H208.426C211.307 28.255 212.31 29.395 212.31 31.597V33.851C212.31 34.395 212.361 34.654 212.541 34.861H220V34.731C219.82 34.395 219.64 33.902 219.64 32.555V29.705C219.64 27.219 218.071 25.665 215.705 25.12C217.145 24.783 219.563 23.617 219.563 20.82V20.535C219.563 17.4 217.094 15.586 211.512 15.586H194.125V34.861H201.43V28.255Z" fill="#2B2B2B"/>
<path d="M127.279 16.744C127.279 16.261 127.279 16.019 127.185 15.834C127.103 15.672 126.972 15.5401 126.811 15.457C126.627 15.363 126.387 15.363 125.907 15.363H121.372C120.892 15.363 120.652 15.363 120.468 15.457C120.307 15.5403 120.175 15.6722 120.093 15.834C120 16.019 120 16.261 120 16.744V33.256C120 33.739 120 33.981 120.093 34.166C120.175 34.3278 120.307 34.4597 120.468 34.543C120.652 34.637 120.892 34.637 121.372 34.637H125.907C126.387 34.637 126.627 34.637 126.811 34.543C126.972 34.4599 127.103 34.328 127.185 34.166C127.279 33.981 127.279 33.739 127.279 33.256V16.744ZM145.692 35C157.215 35 159.015 29.56 159.015 27.047C159.015 26.9928 159.005 26.939 158.984 26.8888C158.964 26.8386 158.934 26.7929 158.895 26.7544C158.857 26.7158 158.812 26.6852 158.762 26.6642C158.712 26.6432 158.658 26.6323 158.604 26.632H152.54C152.194 26.632 152.021 26.632 151.898 26.67C151.786 26.6961 151.684 26.7521 151.601 26.832C151.502 26.914 151.346 27.154 151.035 27.634C150.425 28.572 148.925 29.793 145.152 29.793C140.008 29.793 138.722 27.073 138.722 25V24.69C138.722 22.539 139.854 20.181 145.126 20.181C148.923 20.181 150.402 21.319 151.006 22.204C151.307 22.644 151.457 22.864 151.555 22.944C151.637 23.0201 151.738 23.0735 151.847 23.099C151.967 23.135 152.127 23.135 152.448 23.135H158.681C158.725 23.1349 158.769 23.126 158.809 23.109C158.85 23.092 158.887 23.0671 158.918 23.0358C158.949 23.0045 158.974 22.9674 158.99 22.9266C159.007 22.8858 159.015 22.8421 159.015 22.798C159.015 20.311 157.318 15 145.692 15H144.689C132.755 15 131.16 20.88 131.16 24.56V25.31C131.16 28.964 132.935 35 144.689 35H145.692Z" fill="#2B2B2B"/>
<path fill-rule="evenodd" clip-rule="evenodd" d="M87.556 31.6973C82.356 31.6973 78.141 28.8608 78.141 25.3619C78.141 21.863 82.356 19.0266 87.556 19.0266C92.756 19.0266 96.971 21.863 96.971 25.3619C96.971 28.8608 92.756 31.6973 87.556 31.6973ZM46.167 33.3892C46.1658 33.4378 46.1504 33.4858 46.1217 33.5304C46.093 33.575 46.0515 33.6154 45.9996 33.6492C45.9477 33.6831 45.8864 33.7097 45.8192 33.7275C45.752 33.7454 45.6802 33.7542 45.608 33.7534H19.004C18.466 33.7534 18.197 33.7534 17.956 33.6538C17.7536 33.5601 17.6008 33.4255 17.52 33.2693C17.44 33.0862 17.496 32.9489 17.608 32.6748C17.8522 32.0758 18.2855 31.5192 18.8783 31.0432C19.471 30.5671 20.2094 30.1828 21.0429 29.9164C21.8764 29.6499 22.7855 29.5077 23.7081 29.4993C24.6307 29.491 25.5452 29.6168 26.389 29.868C27.267 30.1306 27.706 30.2612 27.906 30.2646C28.161 30.2686 28.186 30.2646 28.41 30.1818C28.585 30.1171 28.857 29.8882 29.402 29.4304C30.2833 28.688 31.4017 28.0888 32.6741 27.6774C33.9466 27.2659 35.3404 27.0528 36.752 27.0538C41.952 27.0538 46.167 29.8896 46.167 33.3892ZM108.477 25.2158C109.112 25.1128 109.43 25.0623 109.593 24.9809C109.743 24.9127 109.857 24.8151 109.921 24.7015C110 24.5756 110 24.3965 110 24.0383V17.7609C110 12.3923 103.472 8 95.494 8H24.506C17.317 8 11.309 11.5669 10.19 16.2003C10.101 16.5658 10.57 16.8708 11.12 16.8708C12.5316 16.8698 13.9254 17.0829 15.1979 17.4944C16.4703 17.9058 17.5887 18.505 18.47 19.2474C19.016 19.7052 19.288 19.9341 19.463 19.9988C19.687 20.0816 19.712 20.0863 19.967 20.0816C20.167 20.0782 20.606 19.9469 21.483 19.685C22.3268 19.4336 23.2413 19.3078 24.164 19.316C25.0866 19.3242 25.9958 19.4664 26.8294 19.7328C27.6631 19.9991 28.4015 20.3835 28.9944 20.8595C29.5873 21.3355 30.0207 21.8921 30.265 22.4912C30.377 22.7665 30.433 22.9039 30.353 23.0863C30.293 23.2243 30.099 23.396 29.917 23.4714C29.677 23.5711 29.407 23.5711 28.868 23.5711H11.6C11.04 23.5711 10.76 23.5711 10.546 23.6445C10.3578 23.709 10.2049 23.812 10.109 23.9387C10 24.0827 10 24.2713 10 24.6483V31.9019C10 37.2705 16.528 41.6628 24.506 41.6628H39.3C39.545 41.6628 39.667 41.6628 39.782 41.644C39.884 41.6274 39.9816 41.6001 40.071 41.5632C40.171 41.5221 40.258 41.4642 40.431 41.3477L54.541 31.8528C57.527 29.8445 62.411 29.8445 65.396 31.8528L79.507 41.3477C79.68 41.4642 79.767 41.5221 79.867 41.5632C79.957 41.6009 80.054 41.6278 80.157 41.644C80.271 41.6628 80.394 41.6628 80.638 41.6628H95.493C103.472 41.6628 110 37.2705 110 31.9019V31.3485C110 30.9715 110 30.783 109.891 30.6389C109.795 30.5122 109.642 30.4092 109.454 30.3447C109.24 30.2706 108.96 30.2706 108.4 30.2706H104.087C103.54 30.2706 103.266 30.2706 103.029 30.1764C102.828 30.088 102.675 29.9587 102.591 29.8074C102.505 29.6317 102.555 29.4836 102.653 29.188C102.976 28.226 103.693 27.3442 104.722 26.6422C105.751 25.9402 107.052 25.4461 108.477 25.2158Z" fill="url(#paint0_linear_19_930)"/>
<defs>
<linearGradient id="paint0_linear_19_930" x1="-10.5" y1="-4.9043" x2="-2.27126" y2="64.0868" gradientUnits="userSpaceOnUse">
<stop stop-color="#E24B7E"/>
<stop offset="1" stop-color="#5956AB"/>
</linearGradient>
</defs>
</svg>
