<svg width="101" height="34" viewBox="0 0 101 34" fill="none" xmlns="http://www.w3.org/2000/svg">
<path d="M7.37797 12.8388C6.45819 12.8388 5.60411 12.681 4.81573 12.3653C4.02735 12.0497 3.33752 11.6088 2.74624 11.0429C2.16587 10.466 1.71149 9.79659 1.38299 9.03471C1.0545 8.27283 0.890259 7.44557 0.890259 6.55308C0.890259 5.66059 1.049 4.83332 1.36657 4.07145C1.69506 3.30954 2.14945 2.64559 2.72981 2.07961C3.32109 1.51363 4.01093 1.07281 4.79931 0.757161C5.58769 0.441512 6.44727 0.283691 7.37797 0.283691C8.30867 0.283691 9.16825 0.441512 9.95662 0.757161C10.745 1.07281 11.4293 1.51363 12.0097 2.07961C12.601 2.64559 13.0554 3.30954 13.3729 4.07145C13.7014 4.83332 13.8657 5.66059 13.8657 6.55308C13.8657 7.44557 13.7014 8.27283 13.3729 9.03471C13.0444 9.79659 12.5846 10.466 11.9933 11.0429C11.4129 11.6088 10.7286 12.0497 9.9402 12.3653C9.15182 12.681 8.29774 12.8388 7.37797 12.8388ZM7.37797 10.5531C7.9364 10.5531 8.45107 10.4551 8.92188 10.2592C9.4037 10.0633 9.82523 9.7912 10.1866 9.44287C10.5479 9.08369 10.8271 8.6592 11.0242 8.16941C11.2213 7.67961 11.3199 7.14083 11.3199 6.55308C11.3199 5.96532 11.2213 5.43202 11.0242 4.95308C10.8271 4.46328 10.5479 4.03879 10.1866 3.67961C9.82523 3.32043 9.4037 3.04832 8.92188 2.86328C8.45107 2.66737 7.9364 2.56941 7.37797 2.56941C6.81953 2.56941 6.29945 2.66737 5.81763 2.86328C5.34682 3.04832 4.93071 3.32043 4.56936 3.67961C4.20802 4.03879 3.92881 4.46328 3.73171 4.95308C3.53462 5.43202 3.43607 5.96532 3.43607 6.55308C3.43607 7.14083 3.53462 7.67961 3.73171 8.16941C3.92881 8.6592 4.20802 9.08369 4.56936 9.44287C4.93071 9.7912 5.34682 10.0633 5.81763 10.2592C6.29945 10.4551 6.81953 10.5531 7.37797 10.5531ZM18.7098 12.8388C17.9871 12.8388 17.3685 12.6864 16.8538 12.3817C16.3501 12.066 15.9669 11.6306 15.7041 11.0755C15.4413 10.5204 15.3099 9.87284 15.3099 9.13267V3.72859H17.7736V8.93675C17.7736 9.27414 17.8393 9.57349 17.9707 9.83471C18.113 10.0851 18.3101 10.281 18.562 10.4225C18.8138 10.5639 19.0985 10.6347 19.416 10.6347C19.7445 10.6347 20.0292 10.5639 20.2701 10.4225C20.522 10.281 20.7136 10.0851 20.845 9.83471C20.9873 9.57349 21.0585 9.27414 21.0585 8.93675V3.72859H23.5222V12.6429H21.2227V10.8796L21.3541 11.2714C21.1461 11.8048 20.8066 12.2021 20.3358 12.4633C19.8759 12.7137 19.3339 12.8388 18.7098 12.8388ZM29.6426 12.7408C28.5585 12.7408 27.7154 12.4524 27.1132 11.8755C26.5219 11.2878 26.2262 10.4714 26.2262 9.42655V5.85104H24.7152V3.72859H24.7973C25.2572 3.72859 25.6075 3.6143 25.8485 3.38573C26.1003 3.15716 26.2262 2.8143 26.2262 2.35716V1.7041H28.6899V3.72859H30.7923V5.85104H28.6899V9.26328C28.6899 9.56802 28.7446 9.82385 28.8542 10.0306C28.9636 10.2265 29.1334 10.3735 29.3633 10.4714C29.5933 10.5694 29.8779 10.6184 30.2174 10.6184C30.294 10.6184 30.3817 10.6129 30.4802 10.6021C30.5788 10.5912 30.6827 10.5803 30.7923 10.5694V12.6429C30.628 12.6647 30.4419 12.6864 30.2338 12.7082C30.0257 12.73 29.8286 12.7408 29.6426 12.7408ZM35.7508 12.8388C34.7653 12.8388 33.9058 12.6102 33.1721 12.1531C32.4494 11.6851 31.9567 11.0592 31.6939 10.2755L33.5006 9.42655C33.7306 9.90549 34.0426 10.281 34.4368 10.5531C34.831 10.8252 35.269 10.9612 35.7508 10.9612C36.1012 10.9612 36.3695 10.8905 36.5556 10.749C36.7417 10.6075 36.8348 10.4116 36.8348 10.1612C36.8348 10.0306 36.8019 9.92181 36.7362 9.83471C36.6706 9.73675 36.572 9.64965 36.4406 9.57349C36.3092 9.49732 36.145 9.43202 35.9479 9.37757L34.4204 8.95308C33.6868 8.7463 33.1228 8.4143 32.7287 7.95716C32.3345 7.48916 32.1374 6.93945 32.1374 6.30818C32.1374 5.75308 32.2798 5.26875 32.5644 4.85512C32.8491 4.44149 33.2488 4.12043 33.7634 3.89185C34.2781 3.6524 34.8694 3.53267 35.5373 3.53267C36.4133 3.53267 37.1796 3.73945 37.8365 4.15308C38.505 4.55577 38.9756 5.1272 39.249 5.86736L37.4259 6.71634C37.2945 6.3463 37.0538 6.05243 36.7034 5.83471C36.364 5.60614 35.9753 5.49185 35.5373 5.49185C35.2198 5.49185 34.9679 5.55716 34.7817 5.68777C34.6066 5.81839 34.5189 5.99798 34.5189 6.22655C34.5189 6.3463 34.5518 6.45512 34.6175 6.55308C34.6832 6.65104 34.7872 6.73814 34.9295 6.8143C35.0829 6.89047 35.269 6.96124 35.488 7.02655L36.9169 7.45104C37.6616 7.66875 38.2307 8.00067 38.6249 8.44696C39.0191 8.8823 39.2162 9.42108 39.2162 10.0633C39.2162 10.6184 39.0684 11.1027 38.7727 11.5163C38.4886 11.93 38.0887 12.2565 37.5737 12.4959C37.0593 12.7245 36.4516 12.8388 35.7508 12.8388ZM45.1397 12.8388C44.2528 12.8388 43.4431 12.6374 42.7089 12.2347C41.9862 11.832 41.4064 11.2823 40.9679 10.5857C40.5408 9.87822 40.3273 9.07822 40.3273 8.18573C40.3273 7.2823 40.5408 6.4823 40.9679 5.78573C41.4064 5.08916 41.9862 4.53945 42.7089 4.13675C43.4431 3.73406 44.2528 3.53267 45.1397 3.53267C46.0266 3.53267 46.8315 3.73406 47.5541 4.13675C48.2768 4.53945 48.8517 5.08916 49.2787 5.78573C49.7173 6.4823 49.9357 7.2823 49.9357 8.18573C49.9357 9.07822 49.7173 9.87822 49.2787 10.5857C48.8517 11.2823 48.2768 11.832 47.5541 12.2347C46.8315 12.6374 46.0266 12.8388 45.1397 12.8388ZM45.1397 10.6347C45.5889 10.6347 45.9774 10.5313 46.3059 10.3245C46.6459 10.1177 46.9086 9.82924 47.0942 9.4592C47.2913 9.08916 47.3899 8.66467 47.3899 8.18573C47.3899 7.70679 47.2913 7.28777 47.0942 6.92859C46.9086 6.55855 46.6459 6.27006 46.3059 6.06328C45.9774 5.84557 45.5889 5.73675 45.1397 5.73675C44.6913 5.73675 44.2971 5.84557 43.9571 6.06328C43.618 6.27006 43.3494 6.55855 43.1523 6.92859C42.9668 7.28777 42.8731 7.70679 42.8731 8.18573C42.8731 8.66467 42.9668 9.08916 43.1523 9.4592C43.3494 9.82924 43.618 10.1177 43.9571 10.3245C44.2971 10.5313 44.6913 10.6347 45.1397 10.6347ZM54.6069 12.8388C53.8842 12.8388 53.265 12.6864 52.7509 12.3817C52.2466 12.066 51.8639 11.6306 51.6012 11.0755C51.3384 10.5204 51.207 9.87284 51.207 9.13267V3.72859H53.6707V8.93675C53.6707 9.27414 53.7363 9.57349 53.8677 9.83471C54.0098 10.0851 54.2069 10.281 54.459 10.4225C54.7103 10.5639 54.9953 10.6347 55.3131 10.6347C55.6416 10.6347 55.9257 10.5639 56.1672 10.4225C56.4185 10.281 56.6106 10.0851 56.742 9.83471C56.8841 9.57349 56.9556 9.27414 56.9556 8.93675V3.72859H59.4193V12.6429H57.1198V10.8796L57.2512 11.2714C57.0426 11.8048 56.7034 12.2021 56.2329 12.4633C55.773 12.7137 55.231 12.8388 54.6069 12.8388ZM61.2194 12.6429V3.72859H63.5188V5.86736L63.3546 5.55716C63.5517 4.80614 63.8752 4.30002 64.3236 4.03879C64.7835 3.76671 65.3255 3.63063 65.9497 3.63063H66.4753V5.75308H65.7033C65.1013 5.75308 64.6143 5.93814 64.2415 6.30818C63.8695 6.66737 63.6831 7.17896 63.6831 7.84288V12.6429H61.2194ZM71.957 12.8388C71.0593 12.8388 70.2488 12.6374 69.5261 12.2347C68.8141 11.8211 68.245 11.2606 67.818 10.5531C67.4016 9.84557 67.1938 9.05104 67.1938 8.16941C67.1938 7.28777 67.4016 6.49863 67.818 5.80206C68.2343 5.09455 68.8034 4.53945 69.5261 4.13675C70.2488 3.73406 71.0593 3.53267 71.957 3.53267C72.6246 3.53267 73.2438 3.64696 73.8129 3.87553C74.382 4.1041 74.8699 4.42516 75.2747 4.83879C75.6796 5.24149 75.9703 5.72043 76.1452 6.27553L74.01 7.18981C73.8565 6.74353 73.5937 6.38981 73.2216 6.12859C72.8603 5.86737 72.439 5.73675 71.957 5.73675C71.5299 5.73675 71.1464 5.84018 70.8072 6.04696C70.4787 6.25373 70.216 6.54222 70.0189 6.91226C69.8324 7.2823 69.7396 7.70679 69.7396 8.18573C69.7396 8.66467 69.8324 9.08916 70.0189 9.4592C70.216 9.82924 70.4787 10.1177 70.8072 10.3245C71.1464 10.5313 71.5299 10.6347 71.957 10.6347C72.4497 10.6347 72.8767 10.5041 73.2381 10.2429C73.5994 9.98165 73.8565 9.62794 74.01 9.18165L76.1452 10.1123C75.981 10.6347 75.696 11.1027 75.2911 11.5163C74.8863 11.93 74.3985 12.2565 73.8294 12.4959C73.2602 12.7245 72.6361 12.8388 71.957 12.8388ZM77.5963 12.6429V3.72859H80.06V12.6429H77.5963ZM77.5963 2.92859V0.47961H80.06V2.92859H77.5963ZM81.8626 12.6429V3.72859H84.1621V5.49185L84.0307 5.10002C84.2384 4.56671 84.5727 4.17488 85.0326 3.92451C85.5031 3.66328 86.0509 3.53267 86.675 3.53267C87.3542 3.53267 87.9455 3.67414 88.4489 3.95716C88.9638 4.24018 89.3629 4.63741 89.6479 5.149C89.9328 5.64965 90.0749 6.2374 90.0749 6.91226V12.6429H87.6112V7.43471C87.6112 7.08639 87.5398 6.78712 87.3977 6.53675C87.2663 6.28639 87.075 6.09047 86.8228 5.949C86.5822 5.80753 86.2973 5.73675 85.9688 5.73675C85.6509 5.73675 85.3668 5.80753 85.1147 5.949C84.8626 6.09047 84.6655 6.28639 84.5234 6.53675C84.392 6.78712 84.3263 7.08639 84.3263 7.43471V12.6429H81.8626ZM96.097 16.2347C95.4071 16.2347 94.7666 16.1204 94.1753 15.8919C93.584 15.6633 93.0749 15.3422 92.6478 14.9286C92.2315 14.5259 91.9301 14.047 91.7445 13.4919L94.0275 12.6919C94.1474 13.1055 94.3937 13.432 94.7666 13.6714C95.1386 13.9109 95.5821 14.0306 96.097 14.0306C96.5018 14.0306 96.8525 13.9545 97.1481 13.8021C97.4438 13.6606 97.668 13.4483 97.8216 13.1653C97.9858 12.8823 98.0679 12.5504 98.0679 12.1694V10.1286L98.5443 10.7163C98.2371 11.217 97.8429 11.5925 97.3617 11.8429C96.8796 12.0823 96.3154 12.2021 95.6699 12.2021C94.8372 12.2021 94.0932 12.017 93.4362 11.647C92.7792 11.266 92.2643 10.749 91.8923 10.0959C91.5194 9.43202 91.3338 8.681 91.3338 7.84288C91.3338 7.00475 91.5194 6.26467 91.8923 5.62247C92.2643 4.96941 92.7735 4.45781 93.4198 4.08777C94.0653 3.71773 94.7994 3.53267 95.6207 3.53267C96.2661 3.53267 96.8303 3.66328 97.3124 3.92451C97.7936 4.17488 98.2043 4.56124 98.5443 5.08369L98.2322 5.67145V3.72859H100.532V12.1694C100.532 12.9531 100.339 13.6496 99.9567 14.2592C99.5732 14.8796 99.0476 15.3639 98.38 15.7123C97.723 16.0606 96.9617 16.2347 96.097 16.2347ZM96.0149 9.98165C96.4304 9.98165 96.7917 9.89455 97.0989 9.72043C97.4052 9.5463 97.6409 9.30141 97.8051 8.98573C97.9801 8.67006 98.0679 8.30002 98.0679 7.87553C98.0679 7.45104 97.9801 7.081 97.8051 6.76532C97.6294 6.43879 97.3888 6.18843 97.0825 6.0143C96.7753 5.82924 96.4197 5.73675 96.0149 5.73675C95.5985 5.73675 95.2265 5.82924 94.898 6.0143C94.5802 6.18843 94.3281 6.43879 94.1425 6.76532C93.9667 7.081 93.8797 7.45104 93.8797 7.87553C93.8797 8.28916 93.9667 8.65373 94.1425 8.96941C94.3281 9.28508 94.5802 9.53536 94.898 9.72043C95.2265 9.89455 95.5985 9.98165 96.0149 9.98165ZM6.11328 33.247C5.14973 33.247 4.29014 33.0456 3.53461 32.6429C2.77908 32.2402 2.1823 31.6905 1.74433 30.9939C1.3173 30.2864 1.10378 29.4864 1.10378 28.5939V20.8878H3.64959V28.4306C3.64959 28.9096 3.75364 29.3449 3.96165 29.7368C4.18068 30.1177 4.47632 30.417 4.84858 30.6347C5.22085 30.8524 5.64247 30.9612 6.11328 30.9612C6.59509 30.9612 7.01663 30.8524 7.37797 30.6347C7.75023 30.417 8.04045 30.1177 8.24847 29.7368C8.46749 29.3449 8.57696 28.9096 8.57696 28.4306V20.8878H11.1228V28.5939C11.1228 29.4864 10.9038 30.2864 10.4658 30.9939C10.0387 31.6905 9.44746 32.2402 8.69193 32.6429C7.9364 33.0456 7.07682 33.247 6.11328 33.247ZM12.9563 33.051V20.6919H15.42V28.6102L14.5002 28.3163L18.4586 24.1368H21.4971L18.245 27.7286L21.4807 33.051H18.6885L15.9785 28.5286L17.4074 28.1694L14.6645 31.1408L15.42 29.7204V33.051H12.9563ZM22.5801 33.051V24.1368H24.8795V26.2755L24.7153 25.9653C24.9124 25.2143 25.2353 24.7082 25.6843 24.447C26.1442 24.1749 26.6862 24.0388 27.3103 24.0388H27.8359V26.1612H27.064C26.4618 26.1612 25.9745 26.3463 25.6022 26.7163C25.2299 27.0755 25.0438 27.5871 25.0438 28.251V33.051H22.5801ZM31.6915 33.247C31.0455 33.247 30.487 33.1435 30.0162 32.9368C29.5453 32.73 29.184 32.4361 28.9322 32.0551C28.6803 31.6633 28.5543 31.2007 28.5543 30.6674C28.5543 30.1667 28.6694 29.7259 28.8993 29.3449C29.1293 28.9531 29.4796 28.6265 29.9505 28.3653C30.4322 28.1041 31.029 27.919 31.7408 27.8102L34.4837 27.3694V29.1653L32.1843 29.5735C31.8338 29.6388 31.5655 29.7531 31.3795 29.9163C31.1933 30.0688 31.1002 30.2919 31.1002 30.5857C31.1002 30.8578 31.2042 31.0701 31.4123 31.2225C31.6203 31.3749 31.8776 31.451 32.1843 31.451C32.5894 31.451 32.9452 31.3639 33.2519 31.1898C33.5584 31.0157 33.7939 30.7817 33.9581 30.4878C34.1333 30.183 34.2209 29.851 34.2209 29.4919V27.1735C34.2209 26.8361 34.084 26.5531 33.8103 26.3245C33.5475 26.0959 33.1862 25.9817 32.7263 25.9817C32.2882 25.9817 31.8995 26.1014 31.5601 26.3408C31.2316 26.5803 30.9907 26.8959 30.8374 27.2878L28.8665 26.3572C29.0417 25.8565 29.3209 25.4265 29.7041 25.0674C30.0873 24.7082 30.5472 24.4306 31.0838 24.2347C31.6203 24.0388 32.2061 23.9408 32.8412 23.9408C33.5968 23.9408 34.2647 24.0769 34.845 24.349C35.4253 24.6211 35.8743 25.0021 36.1919 25.4919C36.5203 25.9708 36.6845 26.5313 36.6845 27.1735V33.051H34.3852V31.6143L34.9436 31.5163C34.6808 31.9082 34.3906 32.2347 34.0731 32.4959C33.7555 32.7463 33.3997 32.9313 33.0055 33.051C32.6113 33.1817 32.1733 33.247 31.6915 33.247ZM38.4911 33.051V24.1368H40.9547V33.051H38.4911ZM38.4911 23.3368V20.8878H40.9547V23.3368H38.4911ZM42.7582 33.051V24.1368H45.0576V25.9L44.9262 25.5082C45.134 24.9749 45.4682 24.583 45.9281 24.3327C46.3987 24.0714 46.9464 23.9408 47.5706 23.9408C48.2489 23.9408 48.8402 24.0823 49.3444 24.3653C49.8585 24.6483 50.2584 25.0456 50.5434 25.5572C50.8276 26.0578 50.9704 26.6456 50.9704 27.3204V33.051H48.5068V27.8429C48.5068 27.4945 48.4353 27.1953 48.2932 26.9449C48.1618 26.6945 47.9697 26.4986 47.7184 26.3572C47.4769 26.2157 47.1928 26.1449 46.8643 26.1449C46.5465 26.1449 46.2615 26.2157 46.0102 26.3572C45.7581 26.4986 45.561 26.6945 45.4189 26.9449C45.2875 27.1953 45.2218 27.4945 45.2218 27.8429V33.051H42.7582ZM56.9096 33.247C55.957 33.247 55.1308 33.0402 54.4295 32.6265C53.729 32.2021 53.1869 31.6361 52.8034 30.9286C52.4207 30.2211 52.2286 29.4374 52.2286 28.5776C52.2286 27.6851 52.4257 26.8905 52.8199 26.1939C53.2255 25.4973 53.7676 24.9476 54.4459 24.5449C55.125 24.1422 55.8912 23.9408 56.7453 23.9408C57.4573 23.9408 58.0872 24.0551 58.6342 24.2837C59.1819 24.5014 59.6418 24.8116 60.0138 25.2143C60.3973 25.617 60.6872 26.0851 60.8843 26.6184C61.0814 27.1408 61.18 27.7123 61.18 28.3327C61.18 28.5068 61.1693 28.681 61.1471 28.8551C61.1364 29.0184 61.1093 29.1599 61.065 29.2796H54.3473V27.4837H59.6689L58.5028 28.3327C58.6128 27.8647 58.6071 27.451 58.4863 27.0919C58.3664 26.7218 58.1529 26.4333 57.8458 26.2265C57.5501 26.0088 57.1839 25.9 56.7453 25.9C56.3183 25.9 55.952 26.0034 55.6449 26.2102C55.3386 26.417 55.1086 26.7218 54.9551 27.1245C54.8023 27.5272 54.7415 28.017 54.7744 28.5939C54.7309 29.0945 54.7908 29.5354 54.9551 29.9163C55.1193 30.2973 55.3714 30.5966 55.7106 30.8143C56.0506 31.0211 56.4612 31.1245 56.9424 31.1245C57.381 31.1245 57.753 31.0374 58.0593 30.8633C58.3771 30.6892 58.6235 30.4496 58.7984 30.1449L60.7694 31.0755C60.5944 31.5109 60.3152 31.8919 59.9317 32.2184C59.5597 32.5449 59.1162 32.8007 58.6013 32.9857C58.0872 33.1599 57.523 33.247 56.9096 33.247Z" fill="#02447B"/>
</svg>
