<svg width="44" height="44" viewBox="0 0 44 44" fill="none" xmlns="http://www.w3.org/2000/svg">
<g clip-path="url(#clip0_19_579)">
<path d="M12.8451 0C15.2651 0 17.6109 0.67925 19.6321 1.9305C22.651 1.60918 25.7036 1.96528 28.5675 2.97288C31.4314 3.98047 34.0345 5.61418 36.1871 7.755C38.0742 9.63649 39.5719 11.8716 40.5945 14.3324C41.617 16.7932 42.1444 19.4314 42.1464 22.0962C42.1464 23.0422 42.0804 23.9855 41.9484 24.9177C43.0269 26.8327 43.5951 28.9927 43.5984 31.1905C43.5984 32.8742 43.2655 34.5413 42.619 36.0959C41.9724 37.6505 41.0249 39.0619 39.8309 40.249C37.419 42.654 34.151 44.0032 30.7449 44C28.4349 44 26.1854 43.3785 24.2274 42.229C21.1693 42.5941 18.0682 42.2625 15.1565 41.2591C12.2447 40.2556 9.59777 38.6063 7.41388 36.4347C5.52733 34.5534 4.03001 32.3187 3.00749 29.8585C1.98498 27.3982 1.4573 24.7605 1.45462 22.0962C1.45462 21.098 1.52612 20.1052 1.67462 19.1235C0.287229 16.6871 -0.259815 13.8617 0.117903 11.0835C0.495621 8.30531 1.77711 5.72861 3.76462 3.751C6.17568 1.34976 9.44231 0.00109498 12.8451 0ZM14.0744 19.2775C14.5694 20.1273 15.2569 20.8505 16.0791 21.3923C17.1684 22.105 18.3264 22.7066 19.5359 23.188C20.8889 23.7518 21.9366 24.233 22.6846 24.6262C23.3144 24.9342 23.8864 25.3522 24.3759 25.8582C24.7471 26.2487 24.9534 26.7685 24.9534 27.3102C24.9688 27.691 24.8934 28.07 24.7331 28.4158C24.5729 28.7615 24.3326 29.0641 24.0321 29.2985C23.2319 29.8375 22.2721 30.0933 21.3096 30.0245C20.3202 30.0357 19.3392 29.8429 18.4276 29.458C17.9341 29.2387 17.4462 29.0067 16.9646 28.7622C16.4671 28.498 15.9137 28.3565 15.3504 28.3498C14.8461 28.3288 14.353 28.502 13.9726 28.8337C13.7908 29.0066 13.6487 29.2168 13.5561 29.4499C13.4635 29.6831 13.4227 29.9335 13.4364 30.184C13.4248 30.6583 13.5677 31.1234 13.8434 31.5095C14.1759 31.9312 14.6064 32.2654 15.0974 32.483C17.0142 33.3143 19.0923 33.7079 21.1804 33.6353C22.7009 33.6655 24.2143 33.4186 25.6464 32.9065C26.834 32.4851 27.8684 31.7179 28.6164 30.7038C29.3506 29.6313 29.7219 28.3525 29.6779 27.0545C29.7065 25.9938 29.441 24.9458 28.9106 24.0268C28.3722 23.1531 27.6473 22.4093 26.7876 21.8488C25.6981 21.1459 24.5421 20.5518 23.3364 20.075C23.2076 20.012 23.0743 19.9587 22.9376 19.9155C21.9968 19.5341 21.0678 19.1242 20.1519 18.6863C19.596 18.4252 19.0927 18.0645 18.6669 17.622C18.309 17.2455 18.1118 16.7444 18.1169 16.225C18.0993 15.8292 18.1882 15.4359 18.3745 15.0861C18.5607 14.7364 18.8374 14.4431 19.1756 14.2367C19.9787 13.758 20.9033 13.522 21.8376 13.5575C22.5526 13.5492 23.2676 13.64 23.9606 13.8215C24.7141 14.0387 25.4511 14.3082 26.1661 14.6272C26.4549 14.762 26.7711 14.8335 27.0901 14.8363C27.3229 14.842 27.5542 14.7984 27.7689 14.7083C27.9836 14.6183 28.1768 14.4838 28.3359 14.3137C28.6751 13.9426 28.8531 13.452 28.8309 12.9497C28.8391 12.4711 28.6729 12.0059 28.3634 11.6407C27.9402 11.197 27.4155 10.8629 26.8344 10.6672C26.2036 10.4354 25.5514 10.2669 24.8874 10.164C23.9584 10.012 23.0181 9.9402 22.0769 9.9495C20.6385 9.94036 19.2094 10.1804 17.8529 10.659C16.6051 11.0798 15.4912 11.8237 14.6244 12.815C13.7905 13.8023 13.3499 15.0624 13.3869 16.3542C13.3594 17.3717 13.5959 18.3783 14.0744 19.2775Z" fill="#02447B"/>
</g>
<defs>
<clipPath id="clip0_19_579">
<rect width="44" height="44" fill="white"/>
</clipPath>
</defs>
</svg>
