<svg width="45" height="44" viewBox="0 0 45 44" fill="none" xmlns="http://www.w3.org/2000/svg">
<path d="M22.9165 0C17.0831 0 11.4834 2.31928 7.36182 6.44359C3.236 10.5695 0.917647 16.1651 0.916504 22C0.916504 27.8324 3.23682 33.4321 7.36182 37.5564C11.4834 41.6807 17.0831 44 22.9165 44C28.7499 44 34.3496 41.6807 38.4712 37.5564C42.5962 33.4321 44.9165 27.8324 44.9165 22C44.9165 16.1676 42.5962 10.5679 38.4712 6.44359C34.3496 2.31928 28.7499 0 22.9165 0Z" fill="#02447B"/>
<path d="M10.7202 21.6098C17.039 18.7876 21.2515 16.9269 23.3578 16.0279C29.3786 13.4609 30.6281 13.0151 31.4442 13C31.6237 12.9971 32.0233 13.0425 32.284 13.2587C32.5007 13.441 32.5617 13.6875 32.5921 13.8606C32.6192 14.0335 32.6565 14.4276 32.626 14.7352C32.3009 18.2491 30.8889 26.7761 30.171 30.7119C29.8696 32.3771 29.2702 32.9355 28.6912 32.99C27.4315 33.1087 26.4765 32.1372 25.2575 31.3181C23.351 30.0358 22.2742 29.2379 20.4219 27.9869C18.2818 26.5411 19.6701 25.7463 20.8892 24.4477C21.2075 24.1077 26.7542 18.9359 26.8592 18.4668C26.8727 18.4081 26.8863 18.1894 26.7576 18.0741C26.6323 17.9585 26.4461 17.9981 26.3106 18.0293C26.1176 18.0738 23.0733 20.139 17.1677 24.2248C16.3042 24.8338 15.5219 25.1306 14.8176 25.115C14.0455 25.098 12.5556 24.6664 11.4483 24.2977C10.0937 23.8452 9.01352 23.606 9.10834 22.8376C9.15575 22.4376 9.69416 22.0282 10.7202 21.6098Z" fill="#F5F5F5"/>
</svg>
