<svg width="45" height="47" viewBox="0 0 45 47" fill="none" xmlns="http://www.w3.org/2000/svg">
<path fill-rule="evenodd" clip-rule="evenodd" d="M34.0979 1.21093C26.7338 -0.403642 19.0971 -0.403642 11.7329 1.21093L10.9395 1.38311C8.86803 1.83735 6.96553 2.84594 5.44331 4.29682C3.92109 5.74771 2.83875 7.58409 2.31651 9.60197C0.449835 16.8165 0.449835 24.374 2.31651 31.5886C2.81454 33.513 3.8225 35.2741 5.23819 36.6933C6.65388 38.1125 8.42697 39.1393 10.3777 39.6697L11.4661 46.0427C11.5009 46.2451 11.5903 46.4346 11.7251 46.5916C11.8599 46.7486 12.0351 46.8672 12.2325 46.9352C12.4299 47.0032 12.6423 47.018 12.8476 46.9781C13.0528 46.9383 13.2434 46.8452 13.3995 46.7085L19.7918 41.0999C24.5904 41.3871 29.4062 41.0108 34.0979 39.9819L34.8937 39.8097C36.9651 39.3555 38.8676 38.3469 40.3898 36.896C41.9121 35.4451 42.9944 33.6087 43.5167 31.5909C45.3831 24.3763 45.3831 16.8188 43.5167 9.60426C42.9942 7.58609 41.9115 5.74951 40.3889 4.2986C38.8662 2.84769 36.9632 1.83927 34.8913 1.3854L34.0979 1.21093ZM13.7085 9.41601C13.2734 9.35391 12.8299 9.43979 12.4515 9.65936H12.4188C11.541 10.1644 10.7499 10.8004 10.0758 11.5488C9.51401 12.1847 9.20973 12.8275 9.13015 13.4474C9.08333 13.8147 9.1161 14.1866 9.22611 14.5379L9.26824 14.5608C9.90022 16.3814 10.7241 18.133 11.7306 19.7814C13.0284 22.0967 14.6254 24.2379 16.4821 26.1522L16.5383 26.2302L16.6272 26.2945L16.6811 26.3565L16.7466 26.4116C18.7051 28.2382 20.8934 29.812 23.2583 31.095C25.9618 32.539 27.6026 33.2209 28.588 33.5055V33.5193C28.8759 33.6065 29.138 33.6456 29.4025 33.6456C30.2417 33.5847 31.0361 33.2501 31.6589 32.6951C32.4196 32.0339 33.0633 31.2557 33.5642 30.3902V30.3741C34.0347 29.5017 33.8755 28.6798 33.1967 28.1219C31.8333 26.9535 30.359 25.9156 28.794 25.0227C27.7453 24.4648 26.6803 24.8023 26.2497 25.367L25.3298 26.5057C24.857 27.0705 24.0003 26.9924 24.0003 26.9924L23.9769 27.0062C17.5846 25.406 15.8782 19.0582 15.8782 19.0582C15.8782 19.0582 15.7987 18.195 16.3908 17.7542L17.5424 16.8451C18.0948 16.4043 18.4787 15.3621 17.8865 14.3335C16.9821 12.7971 15.9261 11.3515 14.7337 10.0175C14.4736 9.70354 14.1089 9.48972 13.7038 9.41371L13.7085 9.41601ZM24.5082 6.65649C24.1978 6.65649 23.9002 6.77743 23.6807 6.9927C23.4612 7.20797 23.3379 7.49994 23.3379 7.80438C23.3379 8.10882 23.4612 8.40079 23.6807 8.61606C23.9002 8.83133 24.1978 8.95226 24.5082 8.95226C27.4691 8.95226 29.9268 9.90042 31.8719 11.7187C32.8714 12.7127 33.6508 13.8905 34.1611 15.1807C34.6737 16.4732 34.9077 17.853 34.8469 19.235C34.8404 19.3858 34.8643 19.5363 34.9171 19.678C34.97 19.8197 35.0508 19.9497 35.1549 20.0608C35.3652 20.2851 35.6577 20.4183 35.968 20.4311C36.2784 20.4439 36.5813 20.3352 36.81 20.129C37.0387 19.9228 37.1745 19.6359 37.1875 19.3314C37.2601 17.6314 36.9724 15.935 36.3426 14.3496C35.71 12.7567 34.7508 11.308 33.5244 10.0933L33.501 10.0703C31.0878 7.80897 28.0332 6.65649 24.5082 6.65649ZM24.4286 10.4307C24.1182 10.4307 23.8206 10.5517 23.6011 10.7669C23.3816 10.9822 23.2583 11.2742 23.2583 11.5786C23.2583 11.8831 23.3816 12.175 23.6011 12.3903C23.8206 12.6056 24.1182 12.7265 24.4286 12.7265H24.4684C26.6031 12.8757 28.1573 13.5736 29.2457 14.7192C30.3622 15.8993 30.9403 17.3663 30.8959 19.1799C30.8887 19.4844 31.0052 19.7791 31.2196 19.9993C31.434 20.2196 31.7289 20.3472 32.0393 20.3542C32.3497 20.3612 32.6502 20.247 32.8747 20.0367C33.0992 19.8263 33.2294 19.5372 33.2365 19.2327C33.2927 16.852 32.5109 14.7973 30.9614 13.1581V13.1535C29.3768 11.4868 27.2023 10.6052 24.5855 10.433L24.5457 10.4284L24.4286 10.4307ZM24.3842 14.2762C24.2275 14.2626 24.0697 14.2801 23.9202 14.3277C23.7706 14.3753 23.6324 14.452 23.5137 14.5531C23.395 14.6543 23.2983 14.7778 23.2294 14.9164C23.1605 15.0551 23.1207 15.2059 23.1126 15.3599C23.1044 15.5139 23.1279 15.6679 23.1818 15.8128C23.2356 15.9577 23.3187 16.0904 23.426 16.2031C23.5334 16.3158 23.6627 16.4062 23.8064 16.4688C23.9502 16.5313 24.1052 16.5649 24.2625 16.5673C25.2408 16.6178 25.8658 16.9071 26.259 17.2951C26.6546 17.6854 26.9495 18.3121 27.0034 19.2924C27.0063 19.4465 27.0408 19.5983 27.1048 19.739C27.1689 19.8797 27.2611 20.0063 27.3761 20.1113C27.4911 20.2163 27.6264 20.2975 27.7741 20.35C27.9217 20.4026 28.0787 20.4255 28.2355 20.4173C28.3924 20.4092 28.546 20.3701 28.6871 20.3025C28.8283 20.2349 28.9541 20.1401 29.0571 20.0237C29.1601 19.9074 29.2382 19.7719 29.2867 19.6254C29.3351 19.4788 29.3531 19.3242 29.3393 19.1707C29.2644 17.7933 28.8244 16.5765 27.9232 15.6812C27.0174 14.7858 25.7839 14.3496 24.3842 14.2762Z" fill="#02447B"/>
</svg>
